<?xml version="1.0" encoding="UTF-8"?>
<!DOCTYPE svg PUBLIC "-//W3C//DTD SVG 1.1//EN" "http://www.w3.org/Graphics/SVG/1.1/DTD/svg11.dtd">
<svg xmlns="http://www.w3.org/2000/svg" version="1.1" width="4811px" height="4899px" style="shape-rendering:geometricPrecision; text-rendering:geometricPrecision; image-rendering:optimizeQuality; fill-rule:evenodd; clip-rule:evenodd" xmlns:xlink="http://www.w3.org/1999/xlink">
<g><path style="opacity:1" fill="#528173" d="M 2581.5,457.5 C 2536.18,456.167 2490.84,455.167 2445.5,454.5C 2411.83,455.167 2378.17,455.833 2344.5,456.5C 2380.8,454.092 2417.3,453.092 2454,453.5C 2496.72,452.949 2539.22,454.282 2581.5,457.5 Z"/></g>
<g><path style="opacity:1" fill="#000000" d="M 2581.5,457.5 C 2591.26,457.555 2600.93,458.221 2610.5,459.5C 2610.92,460.222 2611.58,460.722 2612.5,461C 2646.85,464.132 2681.18,467.298 2715.5,470.5C 2782.56,478.646 2848.9,490.646 2914.5,506.5C 2920.59,510.021 2927.25,511.688 2934.5,511.5C 2941.43,512.565 2948.09,514.232 2954.5,516.5C 2960.16,519.835 2966.49,521.501 2973.5,521.5C 2980.13,525.252 2987.46,527.252 2995.5,527.5C 3004.23,531.96 3013.56,534.627 3023.5,535.5C 3023.88,536.931 3024.88,537.764 3026.5,538C 3030.7,539.569 3035.04,540.402 3039.5,540.5C 3039.61,541.117 3039.94,541.617 3040.5,542C 3052.67,546.226 3065.01,549.726 3077.5,552.5C 3083.85,556.173 3090.85,558.507 3098.5,559.5C 3099.99,561.28 3101.99,561.946 3104.5,561.5C 3104.47,562.497 3104.97,563.164 3106,563.5C 3157,580.92 3207.17,600.42 3256.5,622C 3298.23,640.698 3339.56,660.198 3380.5,680.5C 3385.35,684.76 3391.01,687.76 3397.5,689.5C 3469.01,729.179 3538.34,772.345 3605.5,819C 3620.83,830.333 3636.17,841.667 3651.5,853C 3653.02,854.009 3654.69,854.509 3656.5,854.5C 3656.86,856.371 3657.86,857.871 3659.5,859C 3731.24,913.215 3799.24,972.048 3863.5,1035.5C 3867.17,1038.83 3870.83,1042.17 3874.5,1045.5C 3881.24,1053.74 3888.57,1061.58 3896.5,1069C 3897.09,1069.46 3897.76,1069.63 3898.5,1069.5C 3899.71,1073.71 3902.37,1076.71 3906.5,1078.5C 3908.5,1082.5 3911.5,1085.5 3915.5,1087.5C 3916.03,1091.03 3918.03,1093.37 3921.5,1094.5C 3922.83,1097.83 3925.17,1100.17 3928.5,1101.5C 3928.69,1104.69 3930.35,1106.69 3933.5,1107.5C 3933.83,1109.83 3935.17,1111.17 3937.5,1111.5C 3937.69,1114.69 3939.35,1116.69 3942.5,1117.5C 3943.17,1120.17 3944.83,1121.83 3947.5,1122.5C 3948.5,1122.83 3949.17,1123.5 3949.5,1124.5C 3949.43,1126.03 3950.09,1127.03 3951.5,1127.5C 3951.5,1129.5 3952.5,1130.5 3954.5,1130.5C 3954.37,1133.37 3955.7,1135.03 3958.5,1135.5C 3958.5,1137.5 3959.5,1138.5 3961.5,1138.5C 3961.34,1141.34 3962.68,1143.01 3965.5,1143.5C 3966.35,1146.89 3968.35,1149.22 3971.5,1150.5C 3973.7,1154.88 3976.53,1158.88 3980,1162.5C 3981.78,1164.79 3983.94,1166.46 3986.5,1167.5C 3986.35,1168.55 3986.52,1169.55 3987,1170.5C 3988.98,1172.9 3991.15,1174.9 3993.5,1176.5C 3994.25,1179.36 3995.91,1181.36 3998.5,1182.5C 3998.75,1184.67 3999.75,1186.34 4001.5,1187.5C 4002.17,1187.83 4002.83,1188.17 4003.5,1188.5C 4004.68,1191.86 4006.52,1194.86 4009,1197.5C 4009.67,1198.25 4010.5,1198.59 4011.5,1198.5C 4011.67,1201.2 4013,1202.87 4015.5,1203.5C 4015.67,1206.2 4017,1207.87 4019.5,1208.5C 4019.67,1211.2 4021,1212.87 4023.5,1213.5C 4023.67,1216.2 4025,1217.87 4027.5,1218.5C 4027.67,1221.2 4029,1222.87 4031.5,1223.5C 4031.09,1225.97 4032.09,1227.31 4034.5,1227.5C 4034.67,1230.2 4036,1231.87 4038.5,1232.5C 4038.09,1234.97 4039.09,1236.31 4041.5,1236.5C 4041.55,1238.63 4042.55,1239.97 4044.5,1240.5C 4044.55,1242.63 4045.55,1243.97 4047.5,1244.5C 4048.5,1244.83 4049.17,1245.5 4049.5,1246.5C 4049.43,1248.03 4050.09,1249.03 4051.5,1249.5C 4051.09,1251.97 4052.09,1253.31 4054.5,1253.5C 4054.09,1255.97 4055.09,1257.31 4057.5,1257.5C 4057.09,1259.97 4058.09,1261.31 4060.5,1261.5C 4060.56,1265.11 4062.23,1267.44 4065.5,1268.5C 4065.55,1270.63 4066.55,1271.97 4068.5,1272.5C 4068.09,1274.97 4069.09,1276.31 4071.5,1276.5C 4071.09,1278.97 4072.09,1280.31 4074.5,1280.5C 4074.29,1282.18 4074.95,1283.18 4076.5,1283.5C 4076.09,1285.97 4077.09,1287.31 4079.5,1287.5C 4079.43,1289.03 4080.09,1290.03 4081.5,1290.5C 4081.09,1292.97 4082.09,1294.31 4084.5,1294.5C 4084.43,1296.03 4085.09,1297.03 4086.5,1297.5C 4086.09,1299.97 4087.09,1301.31 4089.5,1301.5C 4089.29,1303.18 4089.95,1304.18 4091.5,1304.5C 4091.43,1306.03 4092.09,1307.03 4093.5,1307.5C 4093.09,1309.97 4094.09,1311.31 4096.5,1311.5C 4096.29,1313.18 4096.95,1314.18 4098.5,1314.5C 4098.43,1316.03 4099.09,1317.03 4100.5,1317.5C 4101.37,1321.91 4103.7,1325.25 4107.5,1327.5C 4107.29,1329.18 4107.95,1330.18 4109.5,1330.5C 4109.43,1332.03 4110.09,1333.03 4111.5,1333.5C 4111.43,1335.03 4112.09,1336.03 4113.5,1336.5C 4113.43,1338.03 4114.09,1339.03 4115.5,1339.5C 4115.43,1341.03 4116.09,1342.03 4117.5,1342.5C 4117.43,1344.03 4118.09,1345.03 4119.5,1345.5C 4119.43,1347.03 4120.09,1348.03 4121.5,1348.5C 4121.43,1350.03 4122.09,1351.03 4123.5,1351.5C 4123.43,1353.03 4124.09,1354.03 4125.5,1354.5C 4125.43,1356.03 4126.09,1357.03 4127.5,1357.5C 4127.43,1359.03 4128.09,1360.03 4129.5,1360.5C 4129.29,1362.18 4129.95,1363.18 4131.5,1363.5C 4131.29,1365.18 4131.95,1366.18 4133.5,1366.5C 4133.37,1369.61 4134.71,1371.61 4137.5,1372.5C 4138.34,1372.84 4138.67,1373.51 4138.5,1374.5C 4138.43,1376.03 4139.09,1377.03 4140.5,1377.5C 4140.68,1381.21 4142.35,1383.88 4145.5,1385.5C 4145.29,1387.18 4145.95,1388.18 4147.5,1388.5C 4147.68,1392.21 4149.35,1394.88 4152.5,1396.5C 4152.29,1398.18 4152.95,1399.18 4154.5,1399.5C 4154.26,1402.03 4155.26,1403.7 4157.5,1404.5C 4157.29,1406.18 4157.95,1407.18 4159.5,1407.5C 4160.34,1407.84 4160.67,1408.51 4160.5,1409.5C 4160.29,1411.18 4160.95,1412.18 4162.5,1412.5C 4165.52,1420.21 4169.36,1427.54 4174,1434.5C 4174.76,1436.06 4175.93,1437.06 4177.5,1437.5C 4177.26,1440.03 4178.26,1441.7 4180.5,1442.5C 4181.34,1442.84 4181.67,1443.51 4181.5,1444.5C 4181.26,1447.03 4182.26,1448.7 4184.5,1449.5C 4184.58,1452.68 4185.92,1455.02 4188.5,1456.5C 4188.29,1458.18 4188.95,1459.18 4190.5,1459.5C 4190.16,1461.48 4190.82,1462.82 4192.5,1463.5C 4192.29,1465.18 4192.95,1466.18 4194.5,1466.5C 4194.16,1468.48 4194.82,1469.82 4196.5,1470.5C 4196.91,1474.34 4198.58,1477.34 4201.5,1479.5C 4201.22,1482.86 4202.55,1485.19 4205.5,1486.5C 4205.34,1487.87 4205.51,1489.21 4206,1490.5C 4207.39,1493.34 4209.22,1495.67 4211.5,1497.5C 4212.24,1502 4214.24,1505.66 4217.5,1508.5C 4217.16,1510.48 4217.82,1511.82 4219.5,1512.5C 4219.29,1514.18 4219.95,1515.18 4221.5,1515.5C 4222.29,1521.08 4224.62,1525.75 4228.5,1529.5C 4241.06,1556.96 4254.4,1583.96 4268.5,1610.5C 4268.34,1611.87 4268.51,1613.21 4269,1614.5C 4278.39,1634.67 4287.39,1655 4296,1675.5C 4296.7,1677.58 4297.86,1679.25 4299.5,1680.5C 4299.63,1685.23 4301.29,1689.23 4304.5,1692.5C 4322.73,1739.69 4339.9,1787.36 4356,1835.5C 4356.38,1836.06 4356.88,1836.39 4357.5,1836.5C 4361.68,1852.55 4366.18,1868.55 4371,1884.5C 4371.2,1886.32 4372.03,1887.65 4373.5,1888.5C 4376.03,1901.29 4379.2,1913.96 4383,1926.5C 4383.58,1929.57 4384.75,1932.24 4386.5,1934.5C 4386.69,1939.27 4387.53,1943.94 4389,1948.5C 4389.38,1949.06 4389.88,1949.39 4390.5,1949.5C 4413.06,2034.2 4429.4,2120.2 4439.5,2207.5C 4439.28,2215.55 4439.78,2223.55 4441,2231.5C 4441.38,2232.06 4441.88,2232.39 4442.5,2232.5C 4447.15,2269.65 4450.15,2306.99 4451.5,2344.5C 4451.33,2357.17 4451.5,2369.84 4452,2382.5C 4452.19,2384.71 4452.69,2386.71 4453.5,2388.5C 4453.5,2389.5 4453.5,2390.5 4453.5,2391.5C 4453.67,2425.5 4453.5,2459.5 4453,2493.5C 4451.75,2522.82 4450.92,2552.16 4450.5,2581.5C 4450.49,2591.6 4449.83,2601.6 4448.5,2611.5C 4447.88,2611.61 4447.38,2611.94 4447,2612.5C 4446.5,2619.83 4446.33,2627.16 4446.5,2634.5C 4446.16,2644.94 4445.16,2655.28 4443.5,2665.5C 4442.88,2665.61 4442.38,2665.94 4442,2666.5C 4439.88,2682.79 4438.38,2699.12 4437.5,2715.5C 4429.67,2780.98 4418,2845.65 4402.5,2909.5C 4398.82,2917.25 4396.82,2925.58 4396.5,2934.5C 4395.43,2941.43 4393.77,2948.09 4391.5,2954.5C 4390.41,2954.62 4389.75,2955.29 4389.5,2956.5C 4387.7,2962.04 4386.7,2967.7 4386.5,2973.5C 4382.75,2980.12 4380.75,2987.45 4380.5,2995.5C 4377.41,2999.45 4376.08,3004.12 4376.5,3009.5C 4374.84,3011.44 4374.17,3013.77 4374.5,3016.5C 4372.66,3018.28 4371.99,3020.61 4372.5,3023.5C 4371.07,3023.88 4370.24,3024.88 4370,3026.5C 4369.5,3028.81 4369.34,3031.14 4369.5,3033.5C 4368.07,3033.88 4367.24,3034.88 4367,3036.5C 4365.1,3041.69 4363.93,3047.03 4363.5,3052.5C 4361.72,3053.99 4361.05,3055.99 4361.5,3058.5C 4361.59,3061.15 4360.92,3063.49 4359.5,3065.5C 4357.69,3066.92 4357.03,3068.92 4357.5,3071.5C 4354.43,3074.72 4353.09,3078.72 4353.5,3083.5C 4353.41,3085.79 4352.74,3087.79 4351.5,3089.5C 4348.47,3093.92 4346.8,3098.92 4346.5,3104.5C 4346.07,3107.78 4345.07,3110.78 4343.5,3113.5C 4341.74,3114.55 4341.08,3116.22 4341.5,3118.5C 4341.5,3118.83 4341.5,3119.17 4341.5,3119.5C 4339.02,3121.42 4338.02,3124.08 4338.5,3127.5C 4338.74,3128.79 4338.4,3129.79 4337.5,3130.5C 4335.74,3131.55 4335.08,3133.22 4335.5,3135.5C 4333.72,3136.99 4333.05,3138.99 4333.5,3141.5C 4333.2,3143.4 4332.54,3145.07 4331.5,3146.5C 4329.74,3147.55 4329.08,3149.22 4329.5,3151.5C 4329.74,3152.79 4329.4,3153.79 4328.5,3154.5C 4326.79,3155.64 4326.12,3157.3 4326.5,3159.5C 4326.41,3161.79 4325.74,3163.79 4324.5,3165.5C 4322.74,3166.55 4322.08,3168.22 4322.5,3170.5C 4322.6,3172.55 4321.93,3174.22 4320.5,3175.5C 4317.82,3178.19 4316.49,3181.53 4316.5,3185.5C 4316.74,3186.79 4316.4,3187.79 4315.5,3188.5C 4313.74,3189.55 4313.08,3191.22 4313.5,3193.5C 4311.74,3194.55 4311.08,3196.22 4311.5,3198.5C 4311.2,3200.4 4310.54,3202.07 4309.5,3203.5C 4307.74,3204.55 4307.08,3206.22 4307.5,3208.5C 4307.07,3211.16 4306.07,3213.49 4304.5,3215.5C 4302.79,3216.64 4302.12,3218.3 4302.5,3220.5C 4302.07,3223.16 4301.07,3225.49 4299.5,3227.5C 4297.79,3228.64 4297.12,3230.3 4297.5,3232.5C 4295.74,3233.55 4295.08,3235.22 4295.5,3237.5C 4293.68,3243.14 4291.34,3248.47 4288.5,3253.5C 4286.18,3255.09 4285.18,3257.42 4285.5,3260.5C 4285.67,3261.49 4285.34,3262.16 4284.5,3262.5C 4282.18,3264.09 4281.18,3266.42 4281.5,3269.5C 4281.67,3270.49 4281.34,3271.16 4280.5,3271.5C 4278.18,3273.09 4277.18,3275.42 4277.5,3278.5C 4277.67,3279.49 4277.34,3280.16 4276.5,3280.5C 4274.82,3281.18 4274.16,3282.52 4274.5,3284.5C 4272.79,3285.64 4272.12,3287.3 4272.5,3289.5C 4272.01,3291.82 4271.01,3293.82 4269.5,3295.5C 4267.79,3296.64 4267.12,3298.3 4267.5,3300.5C 4266.67,3303.48 4265.34,3306.15 4263.5,3308.5C 4261.82,3309.18 4261.16,3310.52 4261.5,3312.5C 4259.18,3314.09 4258.18,3316.42 4258.5,3319.5C 4256.34,3325.15 4253.67,3330.48 4250.5,3335.5C 4248.82,3336.18 4248.16,3337.52 4248.5,3339.5C 4246.03,3340.61 4245.03,3342.61 4245.5,3345.5C 4243.82,3346.18 4243.16,3347.52 4243.5,3349.5C 4242.67,3352.48 4241.34,3355.15 4239.5,3357.5C 4237.82,3358.18 4237.16,3359.52 4237.5,3361.5C 4236.01,3365.82 4234.01,3369.82 4231.5,3373.5C 4229.26,3374.3 4228.26,3375.97 4228.5,3378.5C 4228.34,3380.15 4227.67,3381.49 4226.5,3382.5C 4224.82,3383.18 4224.16,3384.52 4224.5,3386.5C 4224.67,3387.49 4224.34,3388.16 4223.5,3388.5C 4221.82,3389.18 4221.16,3390.52 4221.5,3392.5C 4219.42,3397 4217.08,3401.33 4214.5,3405.5C 4212.26,3406.3 4211.26,3407.97 4211.5,3410.5C 4209.59,3415.98 4206.93,3420.98 4203.5,3425.5C 4201.95,3425.82 4201.29,3426.82 4201.5,3428.5C 4201.67,3429.49 4201.34,3430.16 4200.5,3430.5C 4197.92,3431.98 4196.58,3434.32 4196.5,3437.5C 4195.59,3440.99 4193.92,3443.99 4191.5,3446.5C 4189.26,3447.3 4188.26,3448.97 4188.5,3451.5C 4188.67,3452.49 4188.34,3453.16 4187.5,3453.5C 4184.55,3454.81 4183.22,3457.14 4183.5,3460.5C 4181.95,3460.82 4181.29,3461.82 4181.5,3463.5C 4181.67,3464.49 4181.34,3465.16 4180.5,3465.5C 4177.55,3466.81 4176.22,3469.14 4176.5,3472.5C 4173.89,3477.77 4170.89,3482.77 4167.5,3487.5C 4164.36,3489.09 4162.69,3491.75 4162.5,3495.5C 4160.95,3495.82 4160.29,3496.82 4160.5,3498.5C 4160.67,3499.49 4160.34,3500.16 4159.5,3500.5C 4157.95,3500.82 4157.29,3501.82 4157.5,3503.5C 4155.26,3504.3 4154.26,3505.97 4154.5,3508.5C 4152.95,3508.82 4152.29,3509.82 4152.5,3511.5C 4152.67,3512.49 4152.34,3513.16 4151.5,3513.5C 4148.71,3514.39 4147.37,3516.39 4147.5,3519.5C 4145.95,3519.82 4145.29,3520.82 4145.5,3522.5C 4145.67,3523.49 4145.34,3524.16 4144.5,3524.5C 4142.95,3524.82 4142.29,3525.82 4142.5,3527.5C 4140.95,3527.82 4140.29,3528.82 4140.5,3530.5C 4138.95,3530.82 4138.29,3531.82 4138.5,3533.5C 4135.35,3535.12 4133.68,3537.79 4133.5,3541.5C 4131.95,3541.82 4131.29,3542.82 4131.5,3544.5C 4129.95,3544.82 4129.29,3545.82 4129.5,3547.5C 4127.95,3547.82 4127.29,3548.82 4127.5,3550.5C 4125.95,3550.82 4125.29,3551.82 4125.5,3553.5C 4123.95,3553.82 4123.29,3554.82 4123.5,3556.5C 4121.95,3556.82 4121.29,3557.82 4121.5,3559.5C 4119.95,3559.82 4119.29,3560.82 4119.5,3562.5C 4117.95,3562.82 4117.29,3563.82 4117.5,3565.5C 4115.95,3565.82 4115.29,3566.82 4115.5,3568.5C 4113.95,3568.82 4113.29,3569.82 4113.5,3571.5C 4111.95,3571.82 4111.29,3572.82 4111.5,3574.5C 4109.95,3574.82 4109.29,3575.82 4109.5,3577.5C 4107.95,3577.82 4107.29,3578.82 4107.5,3580.5C 4105.95,3580.82 4105.29,3581.82 4105.5,3583.5C 4104.5,3583.41 4103.67,3583.75 4103,3584.5C 4101.44,3586.22 4100.61,3588.22 4100.5,3590.5C 4098.95,3590.82 4098.29,3591.82 4098.5,3593.5C 4096.95,3593.82 4096.29,3594.82 4096.5,3596.5C 4095.5,3596.41 4094.67,3596.75 4094,3597.5C 4092.44,3599.22 4091.61,3601.22 4091.5,3603.5C 4089.95,3603.82 4089.29,3604.82 4089.5,3606.5C 4087.09,3606.69 4086.09,3608.03 4086.5,3610.5C 4084.95,3610.82 4084.29,3611.82 4084.5,3613.5C 4082.09,3613.69 4081.09,3615.03 4081.5,3617.5C 4079.95,3617.82 4079.29,3618.82 4079.5,3620.5C 4077.09,3620.69 4076.09,3622.03 4076.5,3624.5C 4074.95,3624.82 4074.29,3625.82 4074.5,3627.5C 4072.09,3627.69 4071.09,3629.03 4071.5,3631.5C 4069.09,3631.69 4068.09,3633.03 4068.5,3635.5C 4066.09,3635.69 4065.09,3637.03 4065.5,3639.5C 4063.95,3639.82 4063.29,3640.82 4063.5,3642.5C 4061.47,3643.05 4060.47,3644.38 4060.5,3646.5C 4058.09,3646.69 4057.09,3648.03 4057.5,3650.5C 4055.09,3650.69 4054.09,3652.03 4054.5,3654.5C 4052.09,3654.69 4051.09,3656.03 4051.5,3658.5C 4049.47,3659.05 4048.47,3660.38 4048.5,3662.5C 4046.47,3663.05 4045.47,3664.38 4045.5,3666.5C 4045.5,3667.17 4045.17,3667.5 4044.5,3667.5C 4042.95,3667.82 4042.29,3668.82 4042.5,3670.5C 4042.5,3671.17 4042.17,3671.5 4041.5,3671.5C 4039.09,3671.69 4038.09,3673.03 4038.5,3675.5C 4036.09,3675.69 4035.09,3677.03 4035.5,3679.5C 4035.5,3680.17 4035.17,3680.5 4034.5,3680.5C 4032.09,3680.69 4031.09,3682.03 4031.5,3684.5C 4029.09,3684.69 4028.09,3686.03 4028.5,3688.5C 4028.5,3689.17 4028.17,3689.5 4027.5,3689.5C 4025.09,3689.69 4024.09,3691.03 4024.5,3693.5C 4024.5,3694.17 4024.17,3694.5 4023.5,3694.5C 4021.09,3694.69 4020.09,3696.03 4020.5,3698.5C 4020.5,3699.17 4020.17,3699.5 4019.5,3699.5C 4017.09,3699.69 4016.09,3701.03 4016.5,3703.5C 4013.68,3703.99 4012.34,3705.66 4012.5,3708.5C 4012.5,3709.17 4012.17,3709.5 4011.5,3709.5C 4009.09,3709.69 4008.09,3711.03 4008.5,3713.5C 4008.5,3714.17 4008.17,3714.5 4007.5,3714.5C 4005.09,3714.69 4004.09,3716.03 4004.5,3718.5C 4004.5,3719.17 4004.17,3719.5 4003.5,3719.5C 4000.68,3719.99 3999.34,3721.66 3999.5,3724.5C 3999.5,3725.17 3999.17,3725.5 3998.5,3725.5C 3996.09,3725.69 3995.09,3727.03 3995.5,3729.5C 3995.17,3730.5 3994.5,3731.17 3993.5,3731.5C 3991.09,3731.69 3990.09,3733.03 3990.5,3735.5C 3990.17,3736.5 3989.5,3737.17 3988.5,3737.5C 3986.09,3737.69 3985.09,3739.03 3985.5,3741.5C 3985.17,3742.5 3984.5,3743.17 3983.5,3743.5C 3980.7,3743.97 3979.37,3745.63 3979.5,3748.5C 3979.17,3749.5 3978.5,3750.17 3977.5,3750.5C 3974.7,3750.97 3973.37,3752.63 3973.5,3755.5C 3973.17,3756.5 3972.5,3757.17 3971.5,3757.5C 3968.7,3757.97 3967.37,3759.63 3967.5,3762.5C 3967.17,3763.5 3966.5,3764.17 3965.5,3764.5C 3962.68,3764.99 3961.34,3766.66 3961.5,3769.5C 3960.83,3770.83 3959.83,3771.83 3958.5,3772.5C 3955.35,3773.31 3953.69,3775.31 3953.5,3778.5C 3953.17,3779.5 3952.5,3780.17 3951.5,3780.5C 3948.35,3781.31 3946.69,3783.31 3946.5,3786.5C 3945.5,3788.17 3944.17,3789.5 3942.5,3790.5C 3939.38,3791.29 3937.71,3793.29 3937.5,3796.5C 3936.5,3798.17 3935.17,3799.5 3933.5,3800.5C 3930.03,3801.63 3928.03,3803.97 3927.5,3807.5C 3925.83,3809.83 3923.83,3811.83 3921.5,3813.5C 3917.7,3814.96 3915.37,3817.63 3914.5,3821.5C 3912.17,3824.5 3909.5,3827.17 3906.5,3829.5C 3901.72,3831.95 3898.38,3835.61 3896.5,3840.5C 3889.83,3847.83 3882.83,3854.83 3875.5,3861.5C 3870.5,3865.83 3865.83,3870.5 3861.5,3875.5C 3854.83,3882.83 3847.83,3889.83 3840.5,3896.5C 3835.61,3898.38 3831.95,3901.72 3829.5,3906.5C 3826.83,3909.83 3823.83,3912.83 3820.5,3915.5C 3816.97,3916.03 3814.63,3918.03 3813.5,3921.5C 3811.83,3923.83 3809.83,3925.83 3807.5,3927.5C 3804.71,3927.62 3802.71,3928.96 3801.5,3931.5C 3801.17,3932.17 3800.83,3932.83 3800.5,3933.5C 3799.5,3935.17 3798.17,3936.5 3796.5,3937.5C 3794.07,3937.27 3792.4,3938.27 3791.5,3940.5C 3791.17,3941.17 3790.83,3941.83 3790.5,3942.5C 3789.5,3944.17 3788.17,3945.5 3786.5,3946.5C 3783.31,3946.69 3781.31,3948.35 3780.5,3951.5C 3779.83,3952.83 3778.83,3953.83 3777.5,3954.5C 3774.66,3954.34 3772.99,3955.68 3772.5,3958.5C 3771.83,3959.83 3770.83,3960.83 3769.5,3961.5C 3766.66,3961.34 3764.99,3962.68 3764.5,3965.5C 3764.17,3966.5 3763.5,3967.17 3762.5,3967.5C 3759.63,3967.37 3757.97,3968.7 3757.5,3971.5C 3757.17,3972.5 3756.5,3973.17 3755.5,3973.5C 3752.63,3973.37 3750.97,3974.7 3750.5,3977.5C 3750.17,3978.5 3749.5,3979.17 3748.5,3979.5C 3745.63,3979.37 3743.97,3980.7 3743.5,3983.5C 3743.17,3984.5 3742.5,3985.17 3741.5,3985.5C 3739.03,3985.09 3737.69,3986.09 3737.5,3988.5C 3737.17,3989.5 3736.5,3990.17 3735.5,3990.5C 3733.03,3990.09 3731.69,3991.09 3731.5,3993.5C 3731.17,3994.5 3730.5,3995.17 3729.5,3995.5C 3727.03,3995.09 3725.69,3996.09 3725.5,3998.5C 3725.5,3999.17 3725.17,3999.5 3724.5,3999.5C 3722.62,3999.23 3721.29,3999.9 3720.5,4001.5C 3720.17,4002.17 3719.83,4002.83 3719.5,4003.5C 3719.5,4004.17 3719.17,4004.5 3718.5,4004.5C 3716.03,4004.09 3714.69,4005.09 3714.5,4007.5C 3714.5,4008.17 3714.17,4008.5 3713.5,4008.5C 3711.03,4008.09 3709.69,4009.09 3709.5,4011.5C 3709.5,4012.17 3709.17,4012.5 3708.5,4012.5C 3706.62,4012.23 3705.29,4012.9 3704.5,4014.5C 3704.17,4015.17 3703.83,4015.83 3703.5,4016.5C 3701.03,4016.09 3699.69,4017.09 3699.5,4019.5C 3699.5,4020.17 3699.17,4020.5 3698.5,4020.5C 3696.03,4020.09 3694.69,4021.09 3694.5,4023.5C 3694.5,4024.17 3694.17,4024.5 3693.5,4024.5C 3691.03,4024.09 3689.69,4025.09 3689.5,4027.5C 3689.5,4028.17 3689.17,4028.5 3688.5,4028.5C 3686.38,4028.47 3685.05,4029.47 3684.5,4031.5C 3682.03,4031.09 3680.69,4032.09 3680.5,4034.5C 3680.5,4035.17 3680.17,4035.5 3679.5,4035.5C 3677.38,4035.47 3676.05,4036.47 3675.5,4038.5C 3673.03,4038.09 3671.69,4039.09 3671.5,4041.5C 3671.5,4042.17 3671.17,4042.5 3670.5,4042.5C 3668.82,4042.29 3667.82,4042.95 3667.5,4044.5C 3667.5,4045.17 3667.17,4045.5 3666.5,4045.5C 3664.38,4045.47 3663.05,4046.47 3662.5,4048.5C 3660.38,4048.47 3659.05,4049.47 3658.5,4051.5C 3656.03,4051.09 3654.69,4052.09 3654.5,4054.5C 3652.03,4054.09 3650.69,4055.09 3650.5,4057.5C 3648.03,4057.09 3646.69,4058.09 3646.5,4060.5C 3644.38,4060.47 3643.05,4061.47 3642.5,4063.5C 3640.82,4063.29 3639.82,4063.95 3639.5,4065.5C 3639.5,4066.17 3639.17,4066.5 3638.5,4066.5C 3636.82,4066.29 3635.82,4066.95 3635.5,4068.5C 3633.03,4068.09 3631.69,4069.09 3631.5,4071.5C 3629.38,4071.47 3628.05,4072.47 3627.5,4074.5C 3625.82,4074.29 3624.82,4074.95 3624.5,4076.5C 3622.03,4076.09 3620.69,4077.09 3620.5,4079.5C 3618.82,4079.29 3617.82,4079.95 3617.5,4081.5C 3615.03,4081.09 3613.69,4082.09 3613.5,4084.5C 3611.82,4084.29 3610.82,4084.95 3610.5,4086.5C 3608.03,4086.09 3606.69,4087.09 3606.5,4089.5C 3604.82,4089.29 3603.82,4089.95 3603.5,4091.5C 3601.82,4091.29 3600.82,4091.95 3600.5,4093.5C 3598.03,4093.09 3596.69,4094.09 3596.5,4096.5C 3594.82,4096.29 3593.82,4096.95 3593.5,4098.5C 3591.82,4098.29 3590.82,4098.95 3590.5,4100.5C 3588.03,4100.09 3586.69,4101.09 3586.5,4103.5C 3584.82,4103.29 3583.82,4103.95 3583.5,4105.5C 3581.82,4105.29 3580.82,4105.95 3580.5,4107.5C 3578.82,4107.29 3577.82,4107.95 3577.5,4109.5C 3575.82,4109.29 3574.82,4109.95 3574.5,4111.5C 3572.82,4111.29 3571.82,4111.95 3571.5,4113.5C 3569.82,4113.29 3568.82,4113.95 3568.5,4115.5C 3566.82,4115.29 3565.82,4115.95 3565.5,4117.5C 3563.82,4117.29 3562.82,4117.95 3562.5,4119.5C 3560.82,4119.29 3559.82,4119.95 3559.5,4121.5C 3557.82,4121.29 3556.82,4121.95 3556.5,4123.5C 3554.82,4123.29 3553.82,4123.95 3553.5,4125.5C 3551.82,4125.29 3550.82,4125.95 3550.5,4127.5C 3548.82,4127.29 3547.82,4127.95 3547.5,4129.5C 3545.82,4129.29 3544.82,4129.95 3544.5,4131.5C 3542.82,4131.29 3541.82,4131.95 3541.5,4133.5C 3538.39,4133.37 3536.39,4134.71 3535.5,4137.5C 3535.16,4138.34 3534.49,4138.67 3533.5,4138.5C 3531.82,4138.29 3530.82,4138.95 3530.5,4140.5C 3528.82,4140.29 3527.82,4140.95 3527.5,4142.5C 3524.97,4142.26 3523.3,4143.26 3522.5,4145.5C 3520.82,4145.29 3519.82,4145.95 3519.5,4147.5C 3516.39,4147.37 3514.39,4148.71 3513.5,4151.5C 3513.16,4152.34 3512.49,4152.67 3511.5,4152.5C 3507.79,4152.68 3505.12,4154.35 3503.5,4157.5C 3500.97,4157.26 3499.3,4158.26 3498.5,4160.5C 3494.79,4160.68 3492.12,4162.35 3490.5,4165.5C 3483.69,4170.62 3476.36,4174.96 3468.5,4178.5C 3465.97,4178.26 3464.3,4179.26 3463.5,4181.5C 3460.97,4181.26 3459.3,4182.26 3458.5,4184.5C 3458.16,4185.34 3457.49,4185.67 3456.5,4185.5C 3453.97,4185.26 3452.3,4186.26 3451.5,4188.5C 3448.97,4188.26 3447.3,4189.26 3446.5,4191.5C 3443.99,4193.92 3440.99,4195.59 3437.5,4196.5C 3434.97,4196.26 3433.3,4197.26 3432.5,4199.5C 3431.49,4200.67 3430.15,4201.34 3428.5,4201.5C 3425.97,4201.26 3424.3,4202.26 3423.5,4204.5C 3419.65,4207.59 3415.32,4209.93 3410.5,4211.5C 3407.97,4211.26 3406.3,4212.26 3405.5,4214.5C 3396.98,4219.93 3387.98,4224.6 3378.5,4228.5C 3375.97,4228.26 3374.3,4229.26 3373.5,4231.5C 3339.63,4249.77 3304.97,4266.43 3269.5,4281.5C 3267.52,4281.16 3266.18,4281.82 3265.5,4283.5C 3190.1,4317.19 3112.77,4345.86 3033.5,4369.5C 3030.61,4368.99 3028.28,4369.66 3026.5,4371.5C 3023.45,4373.1 3020.12,4374.1 3016.5,4374.5C 3013.61,4373.99 3011.28,4374.66 3009.5,4376.5C 3006.61,4375.99 3004.28,4376.66 3002.5,4378.5C 2999.61,4377.99 2997.28,4378.66 2995.5,4380.5C 2994.43,4381.43 2993.1,4381.77 2991.5,4381.5C 2988.61,4380.99 2986.28,4381.66 2984.5,4383.5C 2981.45,4383.36 2978.45,4383.7 2975.5,4384.5C 2974.29,4384.75 2973.62,4385.41 2973.5,4386.5C 2972.43,4387.43 2971.1,4387.77 2969.5,4387.5C 2965.06,4387.42 2960.72,4388.09 2956.5,4389.5C 2955.29,4389.75 2954.62,4390.41 2954.5,4391.5C 2811,4428.86 2665,4449.69 2516.5,4454C 1985.17,4454.67 1453.83,4454.67 922.5,4454C 890.16,4452.12 858.493,4446.95 827.5,4438.5C 814.833,4433.72 801.833,4429.72 788.5,4426.5C 785.374,4424.01 781.708,4422.68 777.5,4422.5C 771.472,4418.49 764.805,4415.82 757.5,4414.5C 751.108,4410.74 744.442,4407.24 737.5,4404C 736.207,4403.51 734.873,4403.34 733.5,4403.5C 732.393,4401.03 730.393,4400.03 727.5,4400.5C 726.817,4398.82 725.483,4398.16 723.5,4398.5C 721.751,4395.63 719.085,4394.29 715.5,4394.5C 715.179,4392.95 714.179,4392.29 712.5,4392.5C 708.118,4387.97 702.785,4384.97 696.5,4383.5C 696.179,4381.95 695.179,4381.29 693.5,4381.5C 691.876,4378.35 689.209,4376.68 685.5,4376.5C 685.027,4375.09 684.027,4374.43 682.5,4374.5C 682.027,4373.09 681.027,4372.43 679.5,4372.5C 678.508,4372.67 677.842,4372.34 677.5,4371.5C 677.027,4370.09 676.027,4369.43 674.5,4369.5C 673.738,4367.74 672.404,4366.74 670.5,4366.5C 670.027,4365.09 669.027,4364.43 667.5,4364.5C 667.586,4363.5 667.252,4362.67 666.5,4362C 664.783,4360.44 662.783,4359.61 660.5,4359.5C 660.306,4357.09 658.973,4356.09 656.5,4356.5C 655.965,4354.55 654.632,4353.55 652.5,4353.5C 651.965,4351.55 650.632,4350.55 648.5,4350.5C 648.306,4348.09 646.973,4347.09 644.5,4347.5C 644.167,4346.83 643.833,4346.17 643.5,4345.5C 642.341,4343.75 640.674,4342.75 638.5,4342.5C 637.871,4340 636.204,4338.67 633.5,4338.5C 632.188,4335.34 629.855,4333.34 626.5,4332.5C 626.027,4331.09 625.027,4330.43 623.5,4330.5C 622.5,4330.17 621.833,4329.5 621.5,4328.5C 621.167,4326.17 619.833,4324.83 617.5,4324.5C 616.041,4320.7 613.374,4318.37 609.5,4317.5C 598.139,4304.14 586.306,4291.14 574,4278.5C 561.563,4263.4 549.896,4247.73 539,4231.5C 538.329,4230.75 537.496,4230.41 536.5,4230.5C 523.276,4207.73 510.776,4184.4 499,4160.5C 487.619,4134.17 477.786,4107.5 469.5,4080.5C 464.189,4062.61 460.523,4044.28 458.5,4025.5C 458.553,4017.14 458.053,4008.8 457,4000.5C 456.617,3999.94 456.117,3999.61 455.5,3999.5C 455.5,3999.17 455.5,3998.83 455.5,3998.5C 454.344,3471.17 454.177,2943.84 455,2416.5C 455.903,2392.51 456.403,2368.51 456.5,2344.5C 458.595,2293.22 463.262,2242.22 470.5,2191.5C 471.117,2191.39 471.617,2191.06 472,2190.5C 473.23,2183.55 473.73,2176.55 473.5,2169.5C 483.241,2096.46 497.574,2024.46 516.5,1953.5C 517.117,1953.39 517.617,1953.06 518,1952.5C 519.907,1946.62 521.074,1940.62 521.5,1934.5C 562.788,1785.57 619.954,1642.91 693,1506.5C 693.49,1505.21 693.657,1503.87 693.5,1502.5C 695.451,1501.28 696.951,1499.62 698,1497.5C 718.488,1459.18 740.488,1421.85 764,1385.5C 764.49,1384.21 764.657,1382.87 764.5,1381.5C 765.496,1381.59 766.329,1381.25 767,1380.5C 770.262,1376.64 772.428,1372.31 773.5,1367.5C 774.496,1367.59 775.329,1367.25 776,1366.5C 784.274,1353.23 792.941,1340.23 802,1327.5C 803.009,1325.98 803.509,1324.31 803.5,1322.5C 805.048,1322.18 805.715,1321.18 805.5,1319.5C 809.331,1317.32 811.664,1313.98 812.5,1309.5C 816.331,1307.32 818.664,1303.98 819.5,1299.5C 822.298,1298.29 824.465,1296.29 826,1293.5C 827.421,1290.99 829.088,1288.66 831,1286.5C 832.009,1284.98 832.509,1283.31 832.5,1281.5C 835.858,1280.47 837.525,1278.14 837.5,1274.5C 839.912,1274.31 840.912,1272.97 840.5,1270.5C 842.912,1270.31 843.912,1268.97 843.5,1266.5C 846.298,1265.29 848.465,1263.29 850,1260.5C 851.009,1258.98 851.509,1257.31 851.5,1255.5C 855.488,1253.89 857.821,1250.89 858.5,1246.5C 860.912,1246.31 861.912,1244.97 861.5,1242.5C 863.912,1242.31 864.912,1240.97 864.5,1238.5C 868.488,1236.89 870.821,1233.89 871.5,1229.5C 875.488,1227.89 877.821,1224.89 878.5,1220.5C 880.912,1220.31 881.912,1218.97 881.5,1216.5C 884.297,1216.03 885.631,1214.37 885.5,1211.5C 888.297,1211.03 889.631,1209.37 889.5,1206.5C 892.297,1206.03 893.631,1204.37 893.5,1201.5C 896.297,1201.03 897.631,1199.37 897.5,1196.5C 902.141,1194.24 905.141,1190.57 906.5,1185.5C 908.716,1184.8 910.549,1183.46 912,1181.5C 922.095,1168.98 932.429,1156.65 943,1144.5C 943.791,1143.26 944.291,1141.92 944.5,1140.5C 947.394,1139.12 949.894,1137.12 952,1134.5C 978.179,1103.81 1005.68,1074.15 1034.5,1045.5C 1037.83,1041.5 1041.5,1037.83 1045.5,1034.5C 1060.08,1019.75 1075.08,1005.58 1090.5,992C 1095.41,987.6 1099.74,982.766 1103.5,977.5C 1113.59,970.348 1123.09,962.348 1132,953.5C 1132.46,952.906 1132.63,952.239 1132.5,951.5C 1136.43,950.569 1139.1,948.236 1140.5,944.5C 1148.01,940.169 1154.84,934.836 1161,928.5C 1161.46,927.906 1161.63,927.239 1161.5,926.5C 1162.92,926.291 1164.26,925.791 1165.5,925C 1170.54,920.288 1175.88,915.955 1181.5,912C 1183.46,910.549 1184.8,908.716 1185.5,906.5C 1190.57,905.141 1194.24,902.141 1196.5,897.5C 1199.37,897.631 1201.03,896.297 1201.5,893.5C 1204.37,893.631 1206.03,892.297 1206.5,889.5C 1209.37,889.631 1211.03,888.297 1211.5,885.5C 1214.37,885.631 1216.03,884.297 1216.5,881.5C 1218.97,881.912 1220.31,880.912 1220.5,878.5C 1224.89,877.821 1227.89,875.488 1229.5,871.5C 1233.89,870.821 1236.89,868.488 1238.5,864.5C 1240.78,864.392 1242.78,863.559 1244.5,862C 1289.5,827.509 1335.83,795.009 1383.5,764.5C 1554.35,656.599 1737.68,576.099 1933.5,523C 1934.06,522.617 1934.39,522.117 1934.5,521.5C 1940.61,520.974 1946.61,519.807 1952.5,518C 1953.06,517.617 1953.39,517.117 1953.5,516.5C 1962.57,513.565 1971.91,511.232 1981.5,509.5C 1987.61,509.554 1993.28,508.221 1998.5,505.5C 2088.92,483.82 2180.58,469.154 2273.5,461.5C 2279.84,461.666 2286.18,461.5 2292.5,461C 2294.38,460.802 2296.05,460.302 2297.5,459.5C 2313.06,457.698 2328.73,456.698 2344.5,456.5C 2378.17,455.833 2411.83,455.167 2445.5,454.5C 2490.84,455.167 2536.18,456.167 2581.5,457.5 Z M 2449.5,1453.5 C 2720.9,1456.61 2954.57,1550.78 3150.5,1736C 3328.1,1911.84 3428.27,2125 3451,2375.5C 3452.78,2399.8 3453.78,2424.13 3454,2448.5C 3454.67,2717.83 3454.67,2987.17 3454,3256.5C 3449.69,3339 3410.86,3398.83 3337.5,3436C 3311.74,3447.52 3284.74,3453.52 3256.5,3454C 2973.83,3454.97 2691.16,3454.63 2408.5,3453C 2156.28,3438.67 1939.28,3345.01 1757.5,3172C 1559.53,2974.6 1458.19,2735.27 1453.5,2454C 1457.67,2184.3 1551.84,1952.13 1736,1757.5C 1915.65,1576.29 2133.48,1475.79 2389.5,1456C 2409.66,1455.14 2429.66,1454.31 2449.5,1453.5 Z"/></g>
<g><path style="opacity:1" fill="#5e9382" d="M 2297.5,459.5 C 2296.05,460.302 2294.38,460.802 2292.5,461C 2286.18,461.5 2279.84,461.666 2273.5,461.5C 2281.3,460.183 2289.3,459.517 2297.5,459.5 Z"/></g>
<g><path style="opacity:1" fill="#58897a" d="M 2610.5,459.5 C 2645.8,461.645 2680.8,465.312 2715.5,470.5C 2681.18,467.298 2646.85,464.132 2612.5,461C 2611.58,460.722 2610.92,460.222 2610.5,459.5 Z"/></g>
<g><path style="opacity:1" fill="#5a8b7c" d="M 1998.5,505.5 C 1993.28,508.221 1987.61,509.554 1981.5,509.5C 1986.95,507.723 1992.61,506.39 1998.5,505.5 Z"/></g>
<g><path style="opacity:0.937" fill="#5e9081" d="M 2914.5,506.5 C 2921.4,507.675 2928.07,509.342 2934.5,511.5C 2927.25,511.688 2920.59,510.021 2914.5,506.5 Z"/></g>
<g><path style="opacity:1" fill="#5e8f80" d="M 1953.5,516.5 C 1953.39,517.117 1953.06,517.617 1952.5,518C 1946.61,519.807 1940.61,520.974 1934.5,521.5C 1940.61,519.387 1946.95,517.721 1953.5,516.5 Z"/></g>
<g><path style="opacity:0.922" fill="#5b8a7b" d="M 2954.5,516.5 C 2961.05,517.721 2967.39,519.387 2973.5,521.5C 2966.49,521.501 2960.16,519.835 2954.5,516.5 Z"/></g>
<g><path style="opacity:0.925" fill="#5a8c7b" d="M 2973.5,521.5 C 2981.09,522.926 2988.43,524.926 2995.5,527.5C 2987.46,527.252 2980.13,525.252 2973.5,521.5 Z"/></g>
<g><path style="opacity:0.91" fill="#578375" d="M 2995.5,527.5 C 3005.1,529.595 3014.44,532.261 3023.5,535.5C 3013.56,534.627 3004.23,531.96 2995.5,527.5 Z"/></g>
<g><path style="opacity:1" fill="#5a887a" d="M 3023.5,535.5 C 3029.12,536.566 3034.45,538.233 3039.5,540.5C 3035.04,540.402 3030.7,539.569 3026.5,538C 3024.88,537.764 3023.88,536.931 3023.5,535.5 Z"/></g>
<g><path style="opacity:1" fill="#5a8a7c" d="M 3039.5,540.5 C 3052.45,543.899 3065.12,547.899 3077.5,552.5C 3065.01,549.726 3052.67,546.226 3040.5,542C 3039.94,541.617 3039.61,541.117 3039.5,540.5 Z"/></g>
<g><path style="opacity:1" fill="#609484" d="M 3077.5,552.5 C 3084.78,554.261 3091.78,556.595 3098.5,559.5C 3090.85,558.507 3083.85,556.173 3077.5,552.5 Z"/></g>
<g><path style="opacity:0.988" fill="#629688" d="M 3098.5,559.5 C 3100.79,559.595 3102.79,560.262 3104.5,561.5C 3101.99,561.946 3099.99,561.28 3098.5,559.5 Z"/></g>
<g><path style="opacity:1" fill="#5c8d7e" d="M 3104.5,561.5 C 3199.85,593.509 3291.85,633.175 3380.5,680.5C 3339.56,660.198 3298.23,640.698 3256.5,622C 3207.17,600.42 3157,580.92 3106,563.5C 3104.97,563.164 3104.47,562.497 3104.5,561.5 Z"/></g>
<g><path style="opacity:1" fill="#4f7b6f" d="M 1934.5,521.5 C 1934.39,522.117 1934.06,522.617 1933.5,523C 1737.68,576.099 1554.35,656.599 1383.5,764.5C 1383.5,764.167 1383.5,763.833 1383.5,763.5C 1554.21,654.334 1737.88,573.667 1934.5,521.5 Z"/></g>
<g><path style="opacity:0.996" fill="#608e81" d="M 3380.5,680.5 C 3386.65,682.74 3392.32,685.74 3397.5,689.5C 3391.01,687.76 3385.35,684.76 3380.5,680.5 Z"/></g>
<g><path style="opacity:1" fill="#598678" d="M 3397.5,689.5 C 3488.41,737.762 3574.75,792.762 3656.5,854.5C 3654.69,854.509 3653.02,854.009 3651.5,853C 3636.17,841.667 3620.83,830.333 3605.5,819C 3538.34,772.345 3469.01,729.179 3397.5,689.5 Z"/></g>
<g><path style="opacity:0.976" fill="#5c8d7d" d="M 1383.5,763.5 C 1383.5,763.833 1383.5,764.167 1383.5,764.5C 1335.83,795.009 1289.5,827.509 1244.5,862C 1242.78,863.559 1240.78,864.392 1238.5,864.5C 1284.9,828.126 1333.24,794.459 1383.5,763.5 Z"/></g>
<g><path style="opacity:0.961" fill="#618f82" d="M 1238.5,864.5 C 1236.89,868.488 1233.89,870.821 1229.5,871.5C 1232.19,868.815 1235.19,866.482 1238.5,864.5 Z"/></g>
<g><path style="opacity:0.965" fill="#609081" d="M 1229.5,871.5 C 1227.89,875.488 1224.89,877.821 1220.5,878.5C 1223.19,875.815 1226.19,873.482 1229.5,871.5 Z"/></g>
<g><path style="opacity:0.984" fill="#65998b" d="M 1220.5,878.5 C 1220.31,880.912 1218.97,881.912 1216.5,881.5C 1217.8,880.512 1219.13,879.512 1220.5,878.5 Z"/></g>
<g><path style="opacity:0.984" fill="#598879" d="M 3656.5,854.5 C 3729.34,909.309 3798.34,968.976 3863.5,1033.5C 3863.5,1034.17 3863.5,1034.83 3863.5,1035.5C 3799.24,972.048 3731.24,913.215 3659.5,859C 3657.86,857.871 3656.86,856.371 3656.5,854.5 Z"/></g>
<g><path style="opacity:0.988" fill="#5e8f80" d="M 1216.5,881.5 C 1216.03,884.297 1214.37,885.631 1211.5,885.5C 1213.14,884.197 1214.81,882.864 1216.5,881.5 Z"/></g>
<g><path style="opacity:0.992" fill="#5c8f7f" d="M 1211.5,885.5 C 1211.03,888.297 1209.37,889.631 1206.5,889.5C 1208.14,888.197 1209.81,886.864 1211.5,885.5 Z"/></g>
<g><path style="opacity:0.992" fill="#5c8e7e" d="M 1206.5,889.5 C 1206.03,892.297 1204.37,893.631 1201.5,893.5C 1203.14,892.197 1204.81,890.864 1206.5,889.5 Z"/></g>
<g><path style="opacity:0.996" fill="#5c8f7f" d="M 1201.5,893.5 C 1201.03,896.297 1199.37,897.631 1196.5,897.5C 1198.14,896.197 1199.81,894.864 1201.5,893.5 Z"/></g>
<g><path style="opacity:0.984" fill="#608e7f" d="M 1196.5,897.5 C 1194.24,902.141 1190.57,905.141 1185.5,906.5C 1188.85,903.152 1192.52,900.152 1196.5,897.5 Z"/></g>
<g><path style="opacity:0.973" fill="#578477" d="M 1185.5,906.5 C 1184.8,908.716 1183.46,910.549 1181.5,912C 1175.88,915.955 1170.54,920.288 1165.5,925C 1164.26,925.791 1162.92,926.291 1161.5,926.5C 1169.18,919.486 1177.18,912.82 1185.5,906.5 Z"/></g>
<g><path style="opacity:0.957" fill="#578577" d="M 1161.5,926.5 C 1161.63,927.239 1161.46,927.906 1161,928.5C 1154.84,934.836 1148.01,940.169 1140.5,944.5C 1147.47,938.529 1154.47,932.529 1161.5,926.5 Z"/></g>
<g><path style="opacity:0.965" fill="#609681" d="M 1140.5,944.5 C 1139.1,948.236 1136.43,950.569 1132.5,951.5C 1135.14,949.196 1137.81,946.862 1140.5,944.5 Z"/></g>
<g><path style="opacity:0.961" fill="#609080" d="M 1132.5,951.5 C 1132.63,952.239 1132.46,952.906 1132,953.5C 1123.09,962.348 1113.59,970.348 1103.5,977.5C 1113.14,968.862 1122.81,960.195 1132.5,951.5 Z"/></g>
<g><path style="opacity:1" fill="#558375" d="M 1103.5,977.5 C 1099.74,982.766 1095.41,987.6 1090.5,992C 1075.08,1005.58 1060.08,1019.75 1045.5,1034.5C 1045.5,1034.17 1045.5,1033.83 1045.5,1033.5C 1063.9,1013.77 1083.23,995.103 1103.5,977.5 Z"/></g>
<g><path style="opacity:0.576" fill="#bfe3d6" d="M 3863.5,1033.5 C 3867.9,1036.89 3871.56,1040.89 3874.5,1045.5C 3870.83,1042.17 3867.17,1038.83 3863.5,1035.5C 3863.5,1034.83 3863.5,1034.17 3863.5,1033.5 Z"/></g>
<g><path style="opacity:0.58" fill="#b6e1d2" d="M 1045.5,1033.5 C 1045.5,1033.83 1045.5,1034.17 1045.5,1034.5C 1041.5,1037.83 1037.83,1041.5 1034.5,1045.5C 1034.17,1045.5 1033.83,1045.5 1033.5,1045.5C 1036.5,1040.5 1040.5,1036.5 1045.5,1033.5 Z"/></g>
<g><path style="opacity:1" fill="#5f9282" d="M 3874.5,1045.5 C 3882.83,1053.17 3890.83,1061.17 3898.5,1069.5C 3897.76,1069.63 3897.09,1069.46 3896.5,1069C 3888.57,1061.58 3881.24,1053.74 3874.5,1045.5 Z"/></g>
<g><path style="opacity:0.914" fill="#567f72" d="M 3898.5,1069.5 C 3901.9,1071.9 3904.57,1074.9 3906.5,1078.5C 3902.37,1076.71 3899.71,1073.71 3898.5,1069.5 Z"/></g>
<g><path style="opacity:1" fill="#609483" d="M 3906.5,1078.5 C 3909.83,1081.17 3912.83,1084.17 3915.5,1087.5C 3911.5,1085.5 3908.5,1082.5 3906.5,1078.5 Z"/></g>
<g><path style="opacity:0.961" fill="#598678" d="M 1033.5,1045.5 C 1033.83,1045.5 1034.17,1045.5 1034.5,1045.5C 1005.68,1074.15 978.179,1103.81 952,1134.5C 949.894,1137.12 947.394,1139.12 944.5,1140.5C 972.362,1107.3 1002.03,1075.63 1033.5,1045.5 Z"/></g>
<g><path style="opacity:0.918" fill="#50786b" d="M 3915.5,1087.5 C 3918.24,1089.24 3920.24,1091.57 3921.5,1094.5C 3918.03,1093.37 3916.03,1091.03 3915.5,1087.5 Z"/></g>
<g><path style="opacity:1" fill="#5f9383" d="M 3921.5,1094.5 C 3924.17,1096.5 3926.5,1098.83 3928.5,1101.5C 3925.17,1100.17 3922.83,1097.83 3921.5,1094.5 Z"/></g>
<g><path style="opacity:0.882" fill="#567b70" d="M 3928.5,1101.5 C 3930.91,1102.91 3932.58,1104.91 3933.5,1107.5C 3930.35,1106.69 3928.69,1104.69 3928.5,1101.5 Z"/></g>
<g><path style="opacity:1" fill="#609383" d="M 3933.5,1107.5 C 3935.17,1108.5 3936.5,1109.83 3937.5,1111.5C 3935.17,1111.17 3933.83,1109.83 3933.5,1107.5 Z"/></g>
<g><path style="opacity:0.918" fill="#527a6d" d="M 3937.5,1111.5 C 3939.91,1112.91 3941.58,1114.91 3942.5,1117.5C 3939.35,1116.69 3937.69,1114.69 3937.5,1111.5 Z"/></g>
<g><path style="opacity:1" fill="#609484" d="M 3942.5,1117.5 C 3944.5,1118.83 3946.17,1120.5 3947.5,1122.5C 3944.83,1121.83 3943.17,1120.17 3942.5,1117.5 Z"/></g>
<g><path style="opacity:0.529" fill="#a4dcc6" d="M 3949.5,1124.5 C 3950.91,1124.97 3951.57,1125.97 3951.5,1127.5C 3950.09,1127.03 3949.43,1126.03 3949.5,1124.5 Z"/></g>
<g><path style="opacity:0.996" fill="#609383" d="M 3951.5,1127.5 C 3952.83,1128.17 3953.83,1129.17 3954.5,1130.5C 3952.5,1130.5 3951.5,1129.5 3951.5,1127.5 Z"/></g>
<g><path style="opacity:0.898" fill="#4b7065" d="M 3954.5,1130.5 C 3956.59,1131.58 3957.92,1133.25 3958.5,1135.5C 3955.7,1135.03 3954.37,1133.37 3954.5,1130.5 Z"/></g>
<g><path style="opacity:0.996" fill="#609383" d="M 3958.5,1135.5 C 3959.83,1136.17 3960.83,1137.17 3961.5,1138.5C 3959.5,1138.5 3958.5,1137.5 3958.5,1135.5 Z"/></g>
<g><path style="opacity:0.588" fill="#709f90" d="M 3961.5,1138.5 C 3963.59,1139.58 3964.92,1141.25 3965.5,1143.5C 3962.68,1143.01 3961.34,1141.34 3961.5,1138.5 Z"/></g>
<g><path style="opacity:0.878" fill="#517f71" d="M 3965.5,1143.5 C 3968.24,1145.24 3970.24,1147.57 3971.5,1150.5C 3968.35,1149.22 3966.35,1146.89 3965.5,1143.5 Z"/></g>
<g><path style="opacity:0.871" fill="#578275" d="M 3971.5,1150.5 C 3976.84,1155.84 3981.84,1161.51 3986.5,1167.5C 3983.94,1166.46 3981.78,1164.79 3980,1162.5C 3976.53,1158.88 3973.7,1154.88 3971.5,1150.5 Z"/></g>
<g><path style="opacity:0.949" fill="#558174" d="M 944.5,1140.5 C 944.291,1141.92 943.791,1143.26 943,1144.5C 932.429,1156.65 922.095,1168.98 912,1181.5C 910.549,1183.46 908.716,1184.8 906.5,1185.5C 918.464,1169.9 931.131,1154.9 944.5,1140.5 Z"/></g>
<g><path style="opacity:0.871" fill="#5b877a" d="M 3986.5,1167.5 C 3989.21,1170.21 3991.54,1173.21 3993.5,1176.5C 3991.15,1174.9 3988.98,1172.9 3987,1170.5C 3986.52,1169.55 3986.35,1168.55 3986.5,1167.5 Z"/></g>
<g><path style="opacity:0.878" fill="#528172" d="M 3993.5,1176.5 C 3995.91,1177.91 3997.58,1179.91 3998.5,1182.5C 3995.91,1181.36 3994.25,1179.36 3993.5,1176.5 Z"/></g>
<g><path style="opacity:1" fill="#3e6259" d="M 3998.5,1182.5 C 3999.83,1183.17 4000.83,1184.17 4001.5,1185.5C 4001.5,1186.17 4001.5,1186.83 4001.5,1187.5C 3999.75,1186.34 3998.75,1184.67 3998.5,1182.5 Z"/></g>
<g><path style="opacity:0.486" fill="#a4dbc7" d="M 4001.5,1185.5 C 4002.91,1185.97 4003.57,1186.97 4003.5,1188.5C 4002.83,1188.17 4002.17,1187.83 4001.5,1187.5C 4001.5,1186.83 4001.5,1186.17 4001.5,1185.5 Z"/></g>
<g><path style="opacity:0.871" fill="#557f72" d="M 4003.5,1188.5 C 4006.64,1191.46 4009.31,1194.79 4011.5,1198.5C 4010.5,1198.59 4009.67,1198.25 4009,1197.5C 4006.52,1194.86 4004.68,1191.86 4003.5,1188.5 Z"/></g>
<g><path style="opacity:0.988" fill="#629082" d="M 906.5,1185.5 C 905.141,1190.57 902.141,1194.24 897.5,1196.5C 900.152,1192.52 903.152,1188.85 906.5,1185.5 Z"/></g>
<g><path style="opacity:0.996" fill="#5f9484" d="M 897.5,1196.5 C 897.631,1199.37 896.297,1201.03 893.5,1201.5C 894.864,1199.81 896.197,1198.14 897.5,1196.5 Z"/></g>
<g><path style="opacity:1" fill="#487367" d="M 4011.5,1198.5 C 4013.59,1199.58 4014.92,1201.25 4015.5,1203.5C 4013,1202.87 4011.67,1201.2 4011.5,1198.5 Z"/></g>
<g><path style="opacity:0.996" fill="#5f9383" d="M 893.5,1201.5 C 893.631,1204.37 892.297,1206.03 889.5,1206.5C 890.864,1204.81 892.197,1203.14 893.5,1201.5 Z"/></g>
<g><path style="opacity:1" fill="#497367" d="M 4015.5,1203.5 C 4017.59,1204.58 4018.92,1206.25 4019.5,1208.5C 4017,1207.87 4015.67,1206.2 4015.5,1203.5 Z"/></g>
<g><path style="opacity:0.988" fill="#609483" d="M 889.5,1206.5 C 889.631,1209.37 888.297,1211.03 885.5,1211.5C 886.864,1209.81 888.197,1208.14 889.5,1206.5 Z"/></g>
<g><path style="opacity:1" fill="#4a7568" d="M 4019.5,1208.5 C 4021.59,1209.58 4022.92,1211.25 4023.5,1213.5C 4021,1212.87 4019.67,1211.2 4019.5,1208.5 Z"/></g>
<g><path style="opacity:0.988" fill="#609583" d="M 885.5,1211.5 C 885.631,1214.37 884.297,1216.03 881.5,1216.5C 882.864,1214.81 884.197,1213.14 885.5,1211.5 Z"/></g>
<g><path style="opacity:1" fill="#4a7468" d="M 4023.5,1213.5 C 4025.59,1214.58 4026.92,1216.25 4027.5,1218.5C 4025,1217.87 4023.67,1216.2 4023.5,1213.5 Z"/></g>
<g><path style="opacity:0.984" fill="#639a88" d="M 881.5,1216.5 C 881.912,1218.97 880.912,1220.31 878.5,1220.5C 879.512,1219.13 880.512,1217.8 881.5,1216.5 Z"/></g>
<g><path style="opacity:1" fill="#52796d" d="M 4027.5,1218.5 C 4029.59,1219.58 4030.92,1221.25 4031.5,1223.5C 4029,1222.87 4027.67,1221.2 4027.5,1218.5 Z"/></g>
<g><path style="opacity:0.965" fill="#619182" d="M 878.5,1220.5 C 877.821,1224.89 875.488,1227.89 871.5,1229.5C 873.482,1226.19 875.815,1223.19 878.5,1220.5 Z"/></g>
<g><path style="opacity:0.902" fill="#4a7668" d="M 4031.5,1223.5 C 4033.26,1224.26 4034.26,1225.6 4034.5,1227.5C 4032.09,1227.31 4031.09,1225.97 4031.5,1223.5 Z"/></g>
<g><path style="opacity:1" fill="#51776c" d="M 4034.5,1227.5 C 4036.59,1228.58 4037.92,1230.25 4038.5,1232.5C 4036,1231.87 4034.67,1230.2 4034.5,1227.5 Z"/></g>
<g><path style="opacity:0.961" fill="#629182" d="M 871.5,1229.5 C 870.821,1233.89 868.488,1236.89 864.5,1238.5C 866.482,1235.19 868.815,1232.19 871.5,1229.5 Z"/></g>
<g><path style="opacity:0.894" fill="#4b7668" d="M 4038.5,1232.5 C 4040.26,1233.26 4041.26,1234.6 4041.5,1236.5C 4039.09,1236.31 4038.09,1234.97 4038.5,1232.5 Z"/></g>
<g><path style="opacity:1" fill="#4e7c6f" d="M 4041.5,1236.5 C 4043.26,1237.26 4044.26,1238.6 4044.5,1240.5C 4042.55,1239.97 4041.55,1238.63 4041.5,1236.5 Z"/></g>
<g><path style="opacity:0.984" fill="#649989" d="M 864.5,1238.5 C 864.912,1240.97 863.912,1242.31 861.5,1242.5C 862.512,1241.13 863.512,1239.8 864.5,1238.5 Z"/></g>
<g><path style="opacity:1" fill="#4e7a6e" d="M 4044.5,1240.5 C 4046.26,1241.26 4047.26,1242.6 4047.5,1244.5C 4045.55,1243.97 4044.55,1242.63 4044.5,1240.5 Z"/></g>
<g><path style="opacity:0.988" fill="#649889" d="M 861.5,1242.5 C 861.912,1244.97 860.912,1246.31 858.5,1246.5C 859.512,1245.13 860.512,1243.8 861.5,1242.5 Z"/></g>
<g><path style="opacity:0.702" fill="#a3dbc7" d="M 4049.5,1246.5 C 4050.91,1246.97 4051.57,1247.97 4051.5,1249.5C 4050.09,1249.03 4049.43,1248.03 4049.5,1246.5 Z"/></g>
<g><path style="opacity:0.949" fill="#61907f" d="M 858.5,1246.5 C 857.821,1250.89 855.488,1253.89 851.5,1255.5C 853.482,1252.19 855.815,1249.19 858.5,1246.5 Z"/></g>
<g><path style="opacity:0.867" fill="#4d7a67" d="M 4051.5,1249.5 C 4053.26,1250.26 4054.26,1251.6 4054.5,1253.5C 4052.09,1253.31 4051.09,1251.97 4051.5,1249.5 Z"/></g>
<g><path style="opacity:0.882" fill="#4f7469" d="M 4054.5,1253.5 C 4056.26,1254.26 4057.26,1255.6 4057.5,1257.5C 4055.09,1257.31 4054.09,1255.97 4054.5,1253.5 Z"/></g>
<g><path style="opacity:0.871" fill="#4c7a67" d="M 4057.5,1257.5 C 4059.26,1258.26 4060.26,1259.6 4060.5,1261.5C 4058.09,1261.31 4057.09,1259.97 4057.5,1257.5 Z"/></g>
<g><path style="opacity:0.941" fill="#5a8678" d="M 851.5,1255.5 C 851.509,1257.31 851.009,1258.98 850,1260.5C 848.465,1263.29 846.298,1265.29 843.5,1266.5C 845.934,1262.62 848.601,1258.95 851.5,1255.5 Z"/></g>
<g><path style="opacity:1" fill="#4e766a" d="M 4060.5,1261.5 C 4062.9,1263.3 4064.57,1265.63 4065.5,1268.5C 4062.23,1267.44 4060.56,1265.11 4060.5,1261.5 Z"/></g>
<g><path style="opacity:0.98" fill="#649a89" d="M 843.5,1266.5 C 843.912,1268.97 842.912,1270.31 840.5,1270.5C 841.512,1269.13 842.512,1267.8 843.5,1266.5 Z"/></g>
<g><path style="opacity:1" fill="#507c70" d="M 4065.5,1268.5 C 4067.26,1269.26 4068.26,1270.6 4068.5,1272.5C 4066.55,1271.97 4065.55,1270.63 4065.5,1268.5 Z"/></g>
<g><path style="opacity:0.973" fill="#65998a" d="M 840.5,1270.5 C 840.912,1272.97 839.912,1274.31 837.5,1274.5C 838.512,1273.13 839.512,1271.8 840.5,1270.5 Z"/></g>
<g><path style="opacity:0.902" fill="#4b7769" d="M 4068.5,1272.5 C 4070.26,1273.26 4071.26,1274.6 4071.5,1276.5C 4069.09,1276.31 4068.09,1274.97 4068.5,1272.5 Z"/></g>
<g><path style="opacity:0.957" fill="#5c8c7d" d="M 837.5,1274.5 C 837.525,1278.14 835.858,1280.47 832.5,1281.5C 833.811,1278.86 835.478,1276.53 837.5,1274.5 Z"/></g>
<g><path style="opacity:0.863" fill="#547a6f" d="M 4071.5,1276.5 C 4073.26,1277.26 4074.26,1278.6 4074.5,1280.5C 4072.09,1280.31 4071.09,1278.97 4071.5,1276.5 Z"/></g>
<g><path style="opacity:0.596" fill="#6eaa96" d="M 4074.5,1280.5 C 4075.91,1280.97 4076.57,1281.97 4076.5,1283.5C 4074.95,1283.18 4074.29,1282.18 4074.5,1280.5 Z"/></g>
<g><path style="opacity:0.882" fill="#4e7469" d="M 4076.5,1283.5 C 4078.26,1284.26 4079.26,1285.6 4079.5,1287.5C 4077.09,1287.31 4076.09,1285.97 4076.5,1283.5 Z"/></g>
<g><path style="opacity:0.643" fill="#79b3a1" d="M 4079.5,1287.5 C 4080.91,1287.97 4081.57,1288.97 4081.5,1290.5C 4080.09,1290.03 4079.43,1289.03 4079.5,1287.5 Z"/></g>
<g><path style="opacity:0.898" fill="#4d766b" d="M 4081.5,1290.5 C 4083.26,1291.26 4084.26,1292.6 4084.5,1294.5C 4082.09,1294.31 4081.09,1292.97 4081.5,1290.5 Z"/></g>
<g><path style="opacity:0.949" fill="#537f72" d="M 832.5,1281.5 C 832.509,1283.31 832.009,1284.98 831,1286.5C 829.088,1288.66 827.421,1290.99 826,1293.5C 824.465,1296.29 822.298,1298.29 819.5,1299.5C 823.845,1293.46 828.179,1287.46 832.5,1281.5 Z"/></g>
<g><path style="opacity:0.663" fill="#78b7a1" d="M 4084.5,1294.5 C 4085.91,1294.97 4086.57,1295.97 4086.5,1297.5C 4085.09,1297.03 4084.43,1296.03 4084.5,1294.5 Z"/></g>
<g><path style="opacity:0.886" fill="#4e7369" d="M 4086.5,1297.5 C 4088.26,1298.26 4089.26,1299.6 4089.5,1301.5C 4087.09,1301.31 4086.09,1299.97 4086.5,1297.5 Z"/></g>
<g><path style="opacity:0.576" fill="#71a89a" d="M 4089.5,1301.5 C 4090.91,1301.97 4091.57,1302.97 4091.5,1304.5C 4089.95,1304.18 4089.29,1303.18 4089.5,1301.5 Z"/></g>
<g><path style="opacity:0.953" fill="#5b8a7c" d="M 819.5,1299.5 C 818.664,1303.98 816.331,1307.32 812.5,1309.5C 814.846,1306.13 817.179,1302.8 819.5,1299.5 Z"/></g>
<g><path style="opacity:0.682" fill="#77b5a0" d="M 4091.5,1304.5 C 4092.91,1304.97 4093.57,1305.97 4093.5,1307.5C 4092.09,1307.03 4091.43,1306.03 4091.5,1304.5 Z"/></g>
<g><path style="opacity:0.894" fill="#4e7368" d="M 4093.5,1307.5 C 4095.26,1308.26 4096.26,1309.6 4096.5,1311.5C 4094.09,1311.31 4093.09,1309.97 4093.5,1307.5 Z"/></g>
<g><path style="opacity:0.322" fill="#71ab99" d="M 4096.5,1311.5 C 4097.91,1311.97 4098.57,1312.97 4098.5,1314.5C 4096.95,1314.18 4096.29,1313.18 4096.5,1311.5 Z"/></g>
<g><path style="opacity:0.957" fill="#5b8a7c" d="M 812.5,1309.5 C 811.664,1313.98 809.331,1317.32 805.5,1319.5C 807.846,1316.13 810.179,1312.8 812.5,1309.5 Z"/></g>
<g><path style="opacity:0.386" fill="#78b6a2" d="M 4098.5,1314.5 C 4099.91,1314.97 4100.57,1315.97 4100.5,1317.5C 4099.09,1317.03 4098.43,1316.03 4098.5,1314.5 Z"/></g>
<g><path style="opacity:0.98" fill="#72a091" d="M 805.5,1319.5 C 805.715,1321.18 805.048,1322.18 803.5,1322.5C 803.932,1321.29 804.599,1320.29 805.5,1319.5 Z"/></g>
<g><path style="opacity:0.894" fill="#598275" d="M 4100.5,1317.5 C 4103.6,1320.27 4105.94,1323.61 4107.5,1327.5C 4103.7,1325.25 4101.37,1321.91 4100.5,1317.5 Z"/></g>
<g><path style="opacity:0.312" fill="#70aa98" d="M 4107.5,1327.5 C 4108.91,1327.97 4109.57,1328.97 4109.5,1330.5C 4107.95,1330.18 4107.29,1329.18 4107.5,1327.5 Z"/></g>
<g><path style="opacity:0.631" fill="#79b5a2" d="M 4109.5,1330.5 C 4110.91,1330.97 4111.57,1331.97 4111.5,1333.5C 4110.09,1333.03 4109.43,1332.03 4109.5,1330.5 Z"/></g>
<g><path style="opacity:0.382" fill="#79b6a2" d="M 4111.5,1333.5 C 4112.91,1333.97 4113.57,1334.97 4113.5,1336.5C 4112.09,1336.03 4111.43,1335.03 4111.5,1333.5 Z"/></g>
<g><path style="opacity:0.384" fill="#78b6a1" d="M 4113.5,1336.5 C 4114.91,1336.97 4115.57,1337.97 4115.5,1339.5C 4114.09,1339.03 4113.43,1338.03 4113.5,1336.5 Z"/></g>
<g><path style="opacity:0.682" fill="#77b6a2" d="M 4115.5,1339.5 C 4116.91,1339.97 4117.57,1340.97 4117.5,1342.5C 4116.09,1342.03 4115.43,1341.03 4115.5,1339.5 Z"/></g>
<g><path style="opacity:0.965" fill="#5c8d7e" d="M 803.5,1322.5 C 803.509,1324.31 803.009,1325.98 802,1327.5C 792.941,1340.23 784.274,1353.23 776,1366.5C 775.329,1367.25 774.496,1367.59 773.5,1367.5C 783.265,1352.29 793.265,1337.29 803.5,1322.5 Z"/></g>
<g><path style="opacity:0.682" fill="#78b7a2" d="M 4117.5,1342.5 C 4118.91,1342.97 4119.57,1343.97 4119.5,1345.5C 4118.09,1345.03 4117.43,1344.03 4117.5,1342.5 Z"/></g>
<g><path style="opacity:0.682" fill="#78b7a2" d="M 4119.5,1345.5 C 4120.91,1345.97 4121.57,1346.97 4121.5,1348.5C 4120.09,1348.03 4119.43,1347.03 4119.5,1345.5 Z"/></g>
<g><path style="opacity:0.682" fill="#78b7a3" d="M 4121.5,1348.5 C 4122.91,1348.97 4123.57,1349.97 4123.5,1351.5C 4122.09,1351.03 4121.43,1350.03 4121.5,1348.5 Z"/></g>
<g><path style="opacity:0.682" fill="#78b7a3" d="M 4123.5,1351.5 C 4124.91,1351.97 4125.57,1352.97 4125.5,1354.5C 4124.09,1354.03 4123.43,1353.03 4123.5,1351.5 Z"/></g>
<g><path style="opacity:0.373" fill="#78b6a1" d="M 4125.5,1354.5 C 4126.91,1354.97 4127.57,1355.97 4127.5,1357.5C 4126.09,1357.03 4125.43,1356.03 4125.5,1354.5 Z"/></g>
<g><path style="opacity:0.608" fill="#79b5a3" d="M 4127.5,1357.5 C 4128.91,1357.97 4129.57,1358.97 4129.5,1360.5C 4128.09,1360.03 4127.43,1359.03 4127.5,1357.5 Z"/></g>
<g><path style="opacity:0.3" fill="#71ab99" d="M 4129.5,1360.5 C 4130.91,1360.97 4131.57,1361.97 4131.5,1363.5C 4129.95,1363.18 4129.29,1362.18 4129.5,1360.5 Z"/></g>
<g><path style="opacity:0.506" fill="#6ead96" d="M 4131.5,1363.5 C 4132.91,1363.97 4133.57,1364.97 4133.5,1366.5C 4131.95,1366.18 4131.29,1365.18 4131.5,1363.5 Z"/></g>
<g><path style="opacity:0.902" fill="#638a7e" d="M 4133.5,1366.5 C 4135.33,1368.15 4136.66,1370.15 4137.5,1372.5C 4134.71,1371.61 4133.37,1369.61 4133.5,1366.5 Z"/></g>
<g><path style="opacity:0.961" fill="#578577" d="M 773.5,1367.5 C 772.428,1372.31 770.262,1376.64 767,1380.5C 766.329,1381.25 765.496,1381.59 764.5,1381.5C 767.514,1376.8 770.514,1372.13 773.5,1367.5 Z"/></g>
<g><path style="opacity:0.631" fill="#79b5a3" d="M 4138.5,1374.5 C 4139.91,1374.97 4140.57,1375.97 4140.5,1377.5C 4139.09,1377.03 4138.43,1376.03 4138.5,1374.5 Z"/></g>
<g><path style="opacity:0.894" fill="#578a77" d="M 4140.5,1377.5 C 4142.95,1379.63 4144.62,1382.3 4145.5,1385.5C 4142.35,1383.88 4140.68,1381.21 4140.5,1377.5 Z"/></g>
<g><path style="opacity:0.588" fill="#70aa98" d="M 4145.5,1385.5 C 4146.91,1385.97 4147.57,1386.97 4147.5,1388.5C 4145.95,1388.18 4145.29,1387.18 4145.5,1385.5 Z"/></g>
<g><path style="opacity:0.882" fill="#598577" d="M 4147.5,1388.5 C 4149.95,1390.63 4151.62,1393.3 4152.5,1396.5C 4149.35,1394.88 4147.68,1392.21 4147.5,1388.5 Z"/></g>
<g><path style="opacity:0.498" fill="#6fae9a" d="M 4152.5,1396.5 C 4153.91,1396.97 4154.57,1397.97 4154.5,1399.5C 4152.95,1399.18 4152.29,1398.18 4152.5,1396.5 Z"/></g>
<g><path style="opacity:0.935" fill="#568477" d="M 4154.5,1399.5 C 4155.89,1400.9 4156.89,1402.57 4157.5,1404.5C 4155.26,1403.7 4154.26,1402.03 4154.5,1399.5 Z"/></g>
<g><path style="opacity:0.906" fill="#64897e" d="M 4157.5,1404.5 C 4158.91,1404.97 4159.57,1405.97 4159.5,1407.5C 4157.95,1407.18 4157.29,1406.18 4157.5,1404.5 Z"/></g>
<g><path style="opacity:0.51" fill="#6eaf9a" d="M 4160.5,1409.5 C 4161.91,1409.97 4162.57,1410.97 4162.5,1412.5C 4160.95,1412.18 4160.29,1411.18 4160.5,1409.5 Z"/></g>
<g><path style="opacity:0.89" fill="#567f73" d="M 4162.5,1412.5 C 4168.25,1420.33 4173.25,1428.66 4177.5,1437.5C 4175.93,1437.06 4174.76,1436.06 4174,1434.5C 4169.36,1427.54 4165.52,1420.21 4162.5,1412.5 Z"/></g>
<g><path style="opacity:0.939" fill="#568778" d="M 4177.5,1437.5 C 4178.89,1438.9 4179.89,1440.57 4180.5,1442.5C 4178.26,1441.7 4177.26,1440.03 4177.5,1437.5 Z"/></g>
<g><path style="opacity:0.91" fill="#5f897c" d="M 4181.5,1444.5 C 4183.25,1445.66 4184.25,1447.33 4184.5,1449.5C 4182.26,1448.7 4181.26,1447.03 4181.5,1444.5 Z"/></g>
<g><path style="opacity:0.878" fill="#568778" d="M 4184.5,1449.5 C 4186.59,1451.34 4187.92,1453.67 4188.5,1456.5C 4185.92,1455.02 4184.58,1452.68 4184.5,1449.5 Z"/></g>
<g><path style="opacity:1" fill="#538072" d="M 764.5,1381.5 C 764.657,1382.87 764.49,1384.21 764,1385.5C 740.488,1421.85 718.488,1459.18 698,1497.5C 696.951,1499.62 695.451,1501.28 693.5,1502.5C 715.405,1461.01 739.071,1420.67 764.5,1381.5 Z"/></g>
<g><path style="opacity:0.388" fill="#71b58e" d="M 4188.5,1456.5 C 4189.91,1456.97 4190.57,1457.97 4190.5,1459.5C 4188.95,1459.18 4188.29,1458.18 4188.5,1456.5 Z"/></g>
<g><path style="opacity:1" fill="#558678" d="M 4190.5,1459.5 C 4191.67,1460.51 4192.34,1461.85 4192.5,1463.5C 4190.82,1462.82 4190.16,1461.48 4190.5,1459.5 Z"/></g>
<g><path style="opacity:0.361" fill="#89b5a6" d="M 4192.5,1463.5 C 4193.91,1463.97 4194.57,1464.97 4194.5,1466.5C 4192.95,1466.18 4192.29,1465.18 4192.5,1463.5 Z"/></g>
<g><path style="opacity:1" fill="#558779" d="M 4194.5,1466.5 C 4195.67,1467.51 4196.34,1468.85 4196.5,1470.5C 4194.82,1469.82 4194.16,1468.48 4194.5,1466.5 Z"/></g>
<g><path style="opacity:0.943" fill="#538274" d="M 4196.5,1470.5 C 4198.92,1473.01 4200.59,1476.01 4201.5,1479.5C 4198.58,1477.34 4196.91,1474.34 4196.5,1470.5 Z"/></g>
<g><path style="opacity:1" fill="#45695f" d="M 4201.5,1479.5 C 4203.59,1481.34 4204.92,1483.67 4205.5,1486.5C 4202.55,1485.19 4201.22,1482.86 4201.5,1479.5 Z"/></g>
<g><path style="opacity:1" fill="#578477" d="M 4205.5,1486.5 C 4208.26,1489.68 4210.26,1493.34 4211.5,1497.5C 4209.22,1495.67 4207.39,1493.34 4206,1490.5C 4205.51,1489.21 4205.34,1487.87 4205.5,1486.5 Z"/></g>
<g><path style="opacity:0.943" fill="#59887a" d="M 4211.5,1497.5 C 4214.26,1500.68 4216.26,1504.34 4217.5,1508.5C 4214.24,1505.66 4212.24,1502 4211.5,1497.5 Z"/></g>
<g><path style="opacity:1" fill="#528174" d="M 4217.5,1508.5 C 4218.67,1509.51 4219.34,1510.85 4219.5,1512.5C 4217.82,1511.82 4217.16,1510.48 4217.5,1508.5 Z"/></g>
<g><path style="opacity:0.345" fill="#8ab6a6" d="M 4219.5,1512.5 C 4220.91,1512.97 4221.57,1513.97 4221.5,1515.5C 4219.95,1515.18 4219.29,1514.18 4219.5,1512.5 Z"/></g>
<g><path style="opacity:1" fill="#4c776c" d="M 4221.5,1515.5 C 4224.34,1519.85 4226.67,1524.52 4228.5,1529.5C 4224.62,1525.75 4222.29,1521.08 4221.5,1515.5 Z"/></g>
<g><path style="opacity:1" fill="#58877a" d="M 4228.5,1529.5 C 4243.15,1555.79 4256.48,1582.79 4268.5,1610.5C 4254.4,1583.96 4241.06,1556.96 4228.5,1529.5 Z"/></g>
<g><path style="opacity:1" fill="#568678" d="M 4268.5,1610.5 C 4279.9,1633.3 4290.23,1656.64 4299.5,1680.5C 4297.86,1679.25 4296.7,1677.58 4296,1675.5C 4287.39,1655 4278.39,1634.67 4269,1614.5C 4268.51,1613.21 4268.34,1611.87 4268.5,1610.5 Z"/></g>
<g><path style="opacity:1" fill="#598b7d" d="M 4299.5,1680.5 C 4301.69,1684.21 4303.35,1688.21 4304.5,1692.5C 4301.29,1689.23 4299.63,1685.23 4299.5,1680.5 Z"/></g>
<g><path style="opacity:1" fill="#5b8c7e" d="M 4304.5,1692.5 C 4324.51,1739.51 4342.18,1787.51 4357.5,1836.5C 4356.88,1836.39 4356.38,1836.06 4356,1835.5C 4339.9,1787.36 4322.73,1739.69 4304.5,1692.5 Z"/></g>
<g><path style="opacity:1" fill="#517e71" d="M 693.5,1502.5 C 693.657,1503.87 693.49,1505.21 693,1506.5C 619.954,1642.91 562.788,1785.57 521.5,1934.5C 561.666,1783.52 619,1639.52 693.5,1502.5 Z"/></g>
<g><path style="opacity:1" fill="#5e8d7f" d="M 4357.5,1836.5 C 4363.75,1853.46 4369.08,1870.8 4373.5,1888.5C 4372.03,1887.65 4371.2,1886.32 4371,1884.5C 4366.18,1868.55 4361.68,1852.55 4357.5,1836.5 Z"/></g>
<g><path style="opacity:1" fill="#5b8d7e" d="M 4373.5,1888.5 C 4378.61,1903.51 4382.94,1918.85 4386.5,1934.5C 4384.75,1932.24 4383.58,1929.57 4383,1926.5C 4379.2,1913.96 4376.03,1901.29 4373.5,1888.5 Z"/></g>
<g><path style="opacity:0.996" fill="#5e9081" d="M 4386.5,1934.5 C 4388.28,1939.27 4389.61,1944.27 4390.5,1949.5C 4389.88,1949.39 4389.38,1949.06 4389,1948.5C 4387.53,1943.94 4386.69,1939.27 4386.5,1934.5 Z"/></g>
<g><path style="opacity:1" fill="#5b8c7e" d="M 521.5,1934.5 C 521.074,1940.62 519.907,1946.62 518,1952.5C 517.617,1953.06 517.117,1953.39 516.5,1953.5C 517.721,1946.95 519.387,1940.61 521.5,1934.5 Z"/></g>
<g><path style="opacity:1" fill="#4e7b6d" d="M 473.5,2169.5 C 473.73,2176.55 473.23,2183.55 472,2190.5C 471.617,2191.06 471.117,2191.39 470.5,2191.5C 470.959,2183.96 471.959,2176.62 473.5,2169.5 Z"/></g>
<g><path style="opacity:1" fill="#518072" d="M 4439.5,2207.5 C 4441.06,2215.63 4442.06,2223.96 4442.5,2232.5C 4441.88,2232.39 4441.38,2232.06 4441,2231.5C 4439.78,2223.55 4439.28,2215.55 4439.5,2207.5 Z"/></g>
<g><path style="opacity:1" fill="#4e796c" d="M 456.5,2344.5 C 456.403,2368.51 455.903,2392.51 455,2416.5C 454.177,2943.84 454.344,3471.17 455.5,3998.5C 454.675,3994.35 454.175,3990.02 454,3985.5C 453.833,3719.83 453.667,3454.17 453.5,3188.5C 453.667,2922.83 453.833,2657.17 454,2391.5C 454.331,2375.65 455.165,2359.98 456.5,2344.5 Z"/></g>
<g><path style="opacity:1" fill="#528174" d="M 4451.5,2344.5 C 4452.94,2358.98 4453.6,2373.64 4453.5,2388.5C 4452.69,2386.71 4452.19,2384.71 4452,2382.5C 4451.5,2369.84 4451.33,2357.17 4451.5,2344.5 Z"/></g>
<g><path style="opacity:1" fill="#558577" d="M 4453.5,2391.5 C 4454.66,2433 4454.83,2474.66 4454,2516.5C 4453.46,2538.36 4452.29,2560.02 4450.5,2581.5C 4450.92,2552.16 4451.75,2522.82 4453,2493.5C 4453.5,2459.5 4453.67,2425.5 4453.5,2391.5 Z"/></g>
<g><path style="opacity:1" fill="#58877a" d="M 4448.5,2611.5 C 4448.43,2619.36 4447.76,2627.03 4446.5,2634.5C 4446.33,2627.16 4446.5,2619.83 4447,2612.5C 4447.38,2611.94 4447.88,2611.61 4448.5,2611.5 Z"/></g>
<g><path style="opacity:0.996" fill="#588779" d="M 4443.5,2665.5 C 4442.3,2682.4 4440.3,2699.07 4437.5,2715.5C 4438.38,2699.12 4439.88,2682.79 4442,2666.5C 4442.38,2665.94 4442.88,2665.61 4443.5,2665.5 Z"/></g>
<g><path style="opacity:0.971" fill="#609283" d="M 4402.5,2909.5 C 4401.25,2918.12 4399.25,2926.46 4396.5,2934.5C 4396.82,2925.58 4398.82,2917.25 4402.5,2909.5 Z"/></g>
<g><path style="opacity:0.949" fill="#548073" d="M 4391.5,2954.5 C 4390.28,2961.05 4388.61,2967.39 4386.5,2973.5C 4386.7,2967.7 4387.7,2962.04 4389.5,2956.5C 4389.75,2955.29 4390.41,2954.62 4391.5,2954.5 Z"/></g>
<g><path style="opacity:0.925" fill="#5d8e7e" d="M 4386.5,2973.5 C 4385.1,2981.1 4383.1,2988.43 4380.5,2995.5C 4380.75,2987.45 4382.75,2980.12 4386.5,2973.5 Z"/></g>
<g><path style="opacity:0.925" fill="#558375" d="M 4380.5,2995.5 C 4379.74,3000.44 4378.41,3005.1 4376.5,3009.5C 4376.08,3004.12 4377.41,2999.45 4380.5,2995.5 Z"/></g>
<g><path style="opacity:0.918" fill="#679687" d="M 4376.5,3009.5 C 4376.28,3012.07 4375.61,3014.4 4374.5,3016.5C 4374.17,3013.77 4374.84,3011.44 4376.5,3009.5 Z"/></g>
<g><path style="opacity:0.49" fill="#7fb1a1" d="M 4374.5,3016.5 C 4374.28,3019.07 4373.61,3021.4 4372.5,3023.5C 4371.99,3020.61 4372.66,3018.28 4374.5,3016.5 Z"/></g>
<g><path style="opacity:1" fill="#578476" d="M 4372.5,3023.5 C 4371.87,3027.05 4370.87,3030.38 4369.5,3033.5C 4369.34,3031.14 4369.5,3028.81 4370,3026.5C 4370.24,3024.88 4371.07,3023.88 4372.5,3023.5 Z"/></g>
<g><path style="opacity:1" fill="#558375" d="M 4369.5,3033.5 C 4367.95,3040.07 4365.95,3046.41 4363.5,3052.5C 4363.93,3047.03 4365.1,3041.69 4367,3036.5C 4367.24,3034.88 4368.07,3033.88 4369.5,3033.5 Z"/></g>
<g><path style="opacity:1" fill="#5a8b7c" d="M 4363.5,3052.5 C 4363.41,3054.79 4362.74,3056.79 4361.5,3058.5C 4361.05,3055.99 4361.72,3053.99 4363.5,3052.5 Z"/></g>
<g><path style="opacity:1" fill="#598a7c" d="M 4359.5,3065.5 C 4359.41,3067.79 4358.74,3069.79 4357.5,3071.5C 4357.03,3068.92 4357.69,3066.92 4359.5,3065.5 Z"/></g>
<g><path style="opacity:1" fill="#558678" d="M 4357.5,3071.5 C 4356.74,3075.78 4355.41,3079.78 4353.5,3083.5C 4353.09,3078.72 4354.43,3074.72 4357.5,3071.5 Z"/></g>
<g><path style="opacity:0.996" fill="#649989" d="M 4351.5,3089.5 C 4350.41,3094.78 4348.74,3099.78 4346.5,3104.5C 4346.8,3098.92 4348.47,3093.92 4351.5,3089.5 Z"/></g>
<g><path style="opacity:1" fill="#578779" d="M 4343.5,3113.5 C 4343.2,3115.4 4342.54,3117.07 4341.5,3118.5C 4341.08,3116.22 4341.74,3114.55 4343.5,3113.5 Z"/></g>
<g><path style="opacity:0.996" fill="#629586" d="M 4341.5,3119.5 C 4340.87,3122.4 4339.87,3125.06 4338.5,3127.5C 4338.02,3124.08 4339.02,3121.42 4341.5,3119.5 Z"/></g>
<g><path style="opacity:1" fill="#568678" d="M 4337.5,3130.5 C 4337.2,3132.4 4336.54,3134.07 4335.5,3135.5C 4335.08,3133.22 4335.74,3131.55 4337.5,3130.5 Z"/></g>
<g><path style="opacity:0.976" fill="#649485" d="M 4335.5,3135.5 C 4335.41,3137.79 4334.74,3139.79 4333.5,3141.5C 4333.05,3138.99 4333.72,3136.99 4335.5,3135.5 Z"/></g>
<g><path style="opacity:1" fill="#558576" d="M 4331.5,3146.5 C 4331.6,3148.55 4330.93,3150.22 4329.5,3151.5C 4329.08,3149.22 4329.74,3147.55 4331.5,3146.5 Z"/></g>
<g><path style="opacity:0.965" fill="#609483" d="M 4328.5,3154.5 C 4328.6,3156.55 4327.93,3158.22 4326.5,3159.5C 4326.12,3157.3 4326.79,3155.64 4328.5,3154.5 Z"/></g>
<g><path style="opacity:1" fill="#568577" d="M 4324.5,3165.5 C 4324.2,3167.4 4323.54,3169.07 4322.5,3170.5C 4322.08,3168.22 4322.74,3166.55 4324.5,3165.5 Z"/></g>
<g><path style="opacity:0.961" fill="#619485" d="M 4320.5,3175.5 C 4319.74,3179.14 4318.4,3182.47 4316.5,3185.5C 4316.49,3181.53 4317.82,3178.19 4320.5,3175.5 Z"/></g>
<g><path style="opacity:1" fill="#5e897d" d="M 4315.5,3188.5 C 4315.6,3190.55 4314.93,3192.22 4313.5,3193.5C 4313.08,3191.22 4313.74,3189.55 4315.5,3188.5 Z"/></g>
<g><path style="opacity:1" fill="#558475" d="M 4313.5,3193.5 C 4313.2,3195.4 4312.54,3197.07 4311.5,3198.5C 4311.08,3196.22 4311.74,3194.55 4313.5,3193.5 Z"/></g>
<g><path style="opacity:1" fill="#558477" d="M 4309.5,3203.5 C 4309.2,3205.4 4308.54,3207.07 4307.5,3208.5C 4307.08,3206.22 4307.74,3204.55 4309.5,3203.5 Z"/></g>
<g><path style="opacity:0.945" fill="#5f9384" d="M 4304.5,3215.5 C 4304.6,3217.55 4303.93,3219.22 4302.5,3220.5C 4302.12,3218.3 4302.79,3216.64 4304.5,3215.5 Z"/></g>
<g><path style="opacity:0.949" fill="#609184" d="M 4299.5,3227.5 C 4299.6,3229.55 4298.93,3231.22 4297.5,3232.5C 4297.12,3230.3 4297.79,3228.64 4299.5,3227.5 Z"/></g>
<g><path style="opacity:1" fill="#548575" d="M 4297.5,3232.5 C 4297.2,3234.4 4296.54,3236.07 4295.5,3237.5C 4295.08,3235.22 4295.74,3233.55 4297.5,3232.5 Z"/></g>
<g><path style="opacity:1" fill="#5d937f" d="M 4288.5,3253.5 C 4288.07,3256.16 4287.07,3258.49 4285.5,3260.5C 4285.18,3257.42 4286.18,3255.09 4288.5,3253.5 Z"/></g>
<g><path style="opacity:1" fill="#5e9280" d="M 4284.5,3262.5 C 4284.07,3265.16 4283.07,3267.49 4281.5,3269.5C 4281.18,3266.42 4282.18,3264.09 4284.5,3262.5 Z"/></g>
<g><path style="opacity:1" fill="#5e9180" d="M 4280.5,3271.5 C 4280.07,3274.16 4279.07,3276.49 4277.5,3278.5C 4277.18,3275.42 4278.18,3273.09 4280.5,3271.5 Z"/></g>
<g><path style="opacity:0.992" fill="#5b8d7e" d="M 4276.5,3280.5 C 4276.34,3282.15 4275.67,3283.49 4274.5,3284.5C 4274.16,3282.52 4274.82,3281.18 4276.5,3280.5 Z"/></g>
<g><path style="opacity:0.91" fill="#669388" d="M 4274.5,3284.5 C 4274.6,3286.55 4273.93,3288.22 4272.5,3289.5C 4272.12,3287.3 4272.79,3285.64 4274.5,3284.5 Z"/></g>
<g><path style="opacity:0.886" fill="#72988c" d="M 4269.5,3295.5 C 4269.2,3297.4 4268.54,3299.07 4267.5,3300.5C 4267.12,3298.3 4267.79,3296.64 4269.5,3295.5 Z"/></g>
<g><path style="opacity:0.988" fill="#5c8e7f" d="M 4263.5,3308.5 C 4263.34,3310.15 4262.67,3311.49 4261.5,3312.5C 4261.16,3310.52 4261.82,3309.18 4263.5,3308.5 Z"/></g>
<g><path style="opacity:1" fill="#689285" d="M 4261.5,3312.5 C 4260.74,3315.02 4259.74,3317.35 4258.5,3319.5C 4258.18,3316.42 4259.18,3314.09 4261.5,3312.5 Z"/></g>
<g><path style="opacity:0.98" fill="#5d8e80" d="M 4250.5,3335.5 C 4250.34,3337.15 4249.67,3338.49 4248.5,3339.5C 4248.16,3337.52 4248.82,3336.18 4250.5,3335.5 Z"/></g>
<g><path style="opacity:0.988" fill="#5c8e7f" d="M 4248.5,3339.5 C 4248.01,3341.82 4247.01,3343.82 4245.5,3345.5C 4245.03,3342.61 4246.03,3340.61 4248.5,3339.5 Z"/></g>
<g><path style="opacity:0.988" fill="#5b8e7e" d="M 4245.5,3345.5 C 4245.34,3347.15 4244.67,3348.49 4243.5,3349.5C 4243.16,3347.52 4243.82,3346.18 4245.5,3345.5 Z"/></g>
<g><path style="opacity:0.98" fill="#5d8f7f" d="M 4239.5,3357.5 C 4239.34,3359.15 4238.67,3360.49 4237.5,3361.5C 4237.16,3359.52 4237.82,3358.18 4239.5,3357.5 Z"/></g>
<g><path style="opacity:0.89" fill="#668b7f" d="M 4231.5,3373.5 C 4230.89,3375.43 4229.89,3377.1 4228.5,3378.5C 4228.26,3375.97 4229.26,3374.3 4231.5,3373.5 Z"/></g>
<g><path style="opacity:0.992" fill="#5a8d7e" d="M 4226.5,3382.5 C 4226.34,3384.15 4225.67,3385.49 4224.5,3386.5C 4224.16,3384.52 4224.82,3383.18 4226.5,3382.5 Z"/></g>
<g><path style="opacity:0.957" fill="#609084" d="M 4223.5,3388.5 C 4223.34,3390.15 4222.67,3391.49 4221.5,3392.5C 4221.16,3390.52 4221.82,3389.18 4223.5,3388.5 Z"/></g>
<g><path style="opacity:0.943" fill="#548276" d="M 4214.5,3405.5 C 4213.89,3407.43 4212.89,3409.1 4211.5,3410.5C 4211.26,3407.97 4212.26,3406.3 4214.5,3405.5 Z"/></g>
<g><path style="opacity:0.012" fill="#809c93" d="M 4203.5,3425.5 C 4203.57,3427.03 4202.91,3428.03 4201.5,3428.5C 4201.29,3426.82 4201.95,3425.82 4203.5,3425.5 Z"/></g>
<g><path style="opacity:0.943" fill="#507c6e" d="M 4200.5,3430.5 C 4199.92,3433.33 4198.59,3435.66 4196.5,3437.5C 4196.58,3434.32 4197.92,3431.98 4200.5,3430.5 Z"/></g>
<g><path style="opacity:0.91" fill="#5e957a" d="M 4191.5,3446.5 C 4191.25,3448.67 4190.25,3450.34 4188.5,3451.5C 4188.26,3448.97 4189.26,3447.3 4191.5,3446.5 Z"/></g>
<g><path style="opacity:0.939" fill="#548375" d="M 4187.5,3453.5 C 4186.42,3456 4185.08,3458.34 4183.5,3460.5C 4183.22,3457.14 4184.55,3454.81 4187.5,3453.5 Z"/></g>
<g><path style="opacity:0.012" fill="#7f9c92" d="M 4183.5,3460.5 C 4183.57,3462.03 4182.91,3463.03 4181.5,3463.5C 4181.29,3461.82 4181.95,3460.82 4183.5,3460.5 Z"/></g>
<g><path style="opacity:0.939" fill="#548476" d="M 4180.5,3465.5 C 4179.42,3468 4178.08,3470.34 4176.5,3472.5C 4176.22,3469.14 4177.55,3466.81 4180.5,3465.5 Z"/></g>
<g><path style="opacity:0.894" fill="#5f867a" d="M 4167.5,3487.5 C 4166.33,3490.51 4164.66,3493.18 4162.5,3495.5C 4162.69,3491.75 4164.36,3489.09 4167.5,3487.5 Z"/></g>
<g><path style="opacity:0.031" fill="#6cb19b" d="M 4162.5,3495.5 C 4162.57,3497.03 4161.91,3498.03 4160.5,3498.5C 4160.29,3496.82 4160.95,3495.82 4162.5,3495.5 Z"/></g>
<g><path style="opacity:0.012" fill="#7f9c92" d="M 4159.5,3500.5 C 4159.57,3502.03 4158.91,3503.03 4157.5,3503.5C 4157.29,3501.82 4157.95,3500.82 4159.5,3500.5 Z"/></g>
<g><path style="opacity:0.935" fill="#588779" d="M 4157.5,3503.5 C 4156.89,3505.43 4155.89,3507.1 4154.5,3508.5C 4154.26,3505.97 4155.26,3504.3 4157.5,3503.5 Z"/></g>
<g><path style="opacity:0.031" fill="#6cb19b" d="M 4154.5,3508.5 C 4154.57,3510.03 4153.91,3511.03 4152.5,3511.5C 4152.29,3509.82 4152.95,3508.82 4154.5,3508.5 Z"/></g>
<g><path style="opacity:0.024" fill="#679c87" d="M 4151.5,3513.5 C 4150.66,3515.85 4149.33,3517.85 4147.5,3519.5C 4147.37,3516.39 4148.71,3514.39 4151.5,3513.5 Z"/></g>
<g><path style="opacity:0.059" fill="#6fa999" d="M 4147.5,3519.5 C 4147.57,3521.03 4146.91,3522.03 4145.5,3522.5C 4145.29,3520.82 4145.95,3519.82 4147.5,3519.5 Z"/></g>
<g><path style="opacity:0.012" fill="#7f9c92" d="M 4144.5,3524.5 C 4144.57,3526.03 4143.91,3527.03 4142.5,3527.5C 4142.29,3525.82 4142.95,3524.82 4144.5,3524.5 Z"/></g>
<g><path style="opacity:0.035" fill="#72a89e" d="M 4142.5,3527.5 C 4142.57,3529.03 4141.91,3530.03 4140.5,3530.5C 4140.29,3528.82 4140.95,3527.82 4142.5,3527.5 Z"/></g>
<g><path style="opacity:0.078" fill="#71a99a" d="M 4140.5,3530.5 C 4140.57,3532.03 4139.91,3533.03 4138.5,3533.5C 4138.29,3531.82 4138.95,3530.82 4140.5,3530.5 Z"/></g>
<g><path style="opacity:0.882" fill="#5a7d72" d="M 4138.5,3533.5 C 4137.62,3536.7 4135.95,3539.37 4133.5,3541.5C 4133.68,3537.79 4135.35,3535.12 4138.5,3533.5 Z"/></g>
<g><path style="opacity:0.027" fill="#74b097" d="M 4133.5,3541.5 C 4133.57,3543.03 4132.91,3544.03 4131.5,3544.5C 4131.29,3542.82 4131.95,3541.82 4133.5,3541.5 Z"/></g>
<g><path style="opacity:0.043" fill="#70ab98" d="M 4131.5,3544.5 C 4131.57,3546.03 4130.91,3547.03 4129.5,3547.5C 4129.29,3545.82 4129.95,3544.82 4131.5,3544.5 Z"/></g>
<g><path style="opacity:0.063" fill="#72aa9a" d="M 4129.5,3547.5 C 4129.57,3549.03 4128.91,3550.03 4127.5,3550.5C 4127.29,3548.82 4127.95,3547.82 4129.5,3547.5 Z"/></g>
<g><path style="opacity:0.086" fill="#70ab97" d="M 4127.5,3550.5 C 4127.57,3552.03 4126.91,3553.03 4125.5,3553.5C 4125.29,3551.82 4125.95,3550.82 4127.5,3550.5 Z"/></g>
<g><path style="opacity:0.094" fill="#6fac9a" d="M 4125.5,3553.5 C 4125.57,3555.03 4124.91,3556.03 4123.5,3556.5C 4123.29,3554.82 4123.95,3553.82 4125.5,3553.5 Z"/></g>
<g><path style="opacity:0.094" fill="#6fac9a" d="M 4123.5,3556.5 C 4123.57,3558.03 4122.91,3559.03 4121.5,3559.5C 4121.29,3557.82 4121.95,3556.82 4123.5,3556.5 Z"/></g>
<g><path style="opacity:0.094" fill="#70ac9a" d="M 4121.5,3559.5 C 4121.57,3561.03 4120.91,3562.03 4119.5,3562.5C 4119.29,3560.82 4119.95,3559.82 4121.5,3559.5 Z"/></g>
<g><path style="opacity:0.094" fill="#70ac9a" d="M 4119.5,3562.5 C 4119.57,3564.03 4118.91,3565.03 4117.5,3565.5C 4117.29,3563.82 4117.95,3562.82 4119.5,3562.5 Z"/></g>
<g><path style="opacity:0.094" fill="#70ac9a" d="M 4117.5,3565.5 C 4117.57,3567.03 4116.91,3568.03 4115.5,3568.5C 4115.29,3566.82 4115.95,3565.82 4117.5,3565.5 Z"/></g>
<g><path style="opacity:0.09" fill="#6eac99" d="M 4115.5,3568.5 C 4115.57,3570.03 4114.91,3571.03 4113.5,3571.5C 4113.29,3569.82 4113.95,3568.82 4115.5,3568.5 Z"/></g>
<g><path style="opacity:0.961" fill="#5a8a7b" d="M 4113.5,3571.5 C 4113.57,3573.03 4112.91,3574.03 4111.5,3574.5C 4111.29,3572.82 4111.95,3571.82 4113.5,3571.5 Z"/></g>
<g><path style="opacity:0.063" fill="#72aa9a" d="M 4111.5,3574.5 C 4111.57,3576.03 4110.91,3577.03 4109.5,3577.5C 4109.29,3575.82 4109.95,3574.82 4111.5,3574.5 Z"/></g>
<g><path style="opacity:0.929" fill="#598a7b" d="M 4109.5,3577.5 C 4109.57,3579.03 4108.91,3580.03 4107.5,3580.5C 4107.29,3578.82 4107.95,3577.82 4109.5,3577.5 Z"/></g>
<g><path style="opacity:0.024" fill="#6cad92" d="M 4107.5,3580.5 C 4107.57,3582.03 4106.91,3583.03 4105.5,3583.5C 4105.29,3581.82 4105.95,3580.82 4107.5,3580.5 Z"/></g>
<g><path style="opacity:0.894" fill="#608177" d="M 4105.5,3583.5 C 4104.57,3586.37 4102.9,3588.7 4100.5,3590.5C 4100.61,3588.22 4101.44,3586.22 4103,3584.5C 4103.67,3583.75 4104.5,3583.41 4105.5,3583.5 Z"/></g>
<g><path style="opacity:0.961" fill="#5a8a7b" d="M 4100.5,3590.5 C 4100.57,3592.03 4099.91,3593.03 4098.5,3593.5C 4098.29,3591.82 4098.95,3590.82 4100.5,3590.5 Z"/></g>
<g><path style="opacity:0.047" fill="#6cad9a" d="M 4098.5,3593.5 C 4098.57,3595.03 4097.91,3596.03 4096.5,3596.5C 4096.29,3594.82 4096.95,3593.82 4098.5,3593.5 Z"/></g>
<g><path style="opacity:0.898" fill="#4f7b6f" d="M 4096.5,3596.5 C 4095.21,3599.12 4093.55,3601.45 4091.5,3603.5C 4091.61,3601.22 4092.44,3599.22 4094,3597.5C 4094.67,3596.75 4095.5,3596.41 4096.5,3596.5 Z"/></g>
<g><path style="opacity:0.039" fill="#6ca995" d="M 4091.5,3603.5 C 4091.57,3605.03 4090.91,3606.03 4089.5,3606.5C 4089.29,3604.82 4089.95,3603.82 4091.5,3603.5 Z"/></g>
<g><path style="opacity:0.886" fill="#597e72" d="M 4089.5,3606.5 C 4089.26,3608.4 4088.26,3609.74 4086.5,3610.5C 4086.09,3608.03 4087.09,3606.69 4089.5,3606.5 Z"/></g>
<g><path style="opacity:0.071" fill="#72ac97" d="M 4086.5,3610.5 C 4086.57,3612.03 4085.91,3613.03 4084.5,3613.5C 4084.29,3611.82 4084.95,3610.82 4086.5,3610.5 Z"/></g>
<g><path style="opacity:0.898" fill="#568277" d="M 4084.5,3613.5 C 4084.26,3615.4 4083.26,3616.74 4081.5,3617.5C 4081.09,3615.03 4082.09,3613.69 4084.5,3613.5 Z"/></g>
<g><path style="opacity:0.055" fill="#73a796" d="M 4081.5,3617.5 C 4081.57,3619.03 4080.91,3620.03 4079.5,3620.5C 4079.29,3618.82 4079.95,3617.82 4081.5,3617.5 Z"/></g>
<g><path style="opacity:0.882" fill="#597d72" d="M 4079.5,3620.5 C 4079.26,3622.4 4078.26,3623.74 4076.5,3624.5C 4076.09,3622.03 4077.09,3620.69 4079.5,3620.5 Z"/></g>
<g><path style="opacity:0.039" fill="#6ca895" d="M 4076.5,3624.5 C 4076.57,3626.03 4075.91,3627.03 4074.5,3627.5C 4074.29,3625.82 4074.95,3624.82 4076.5,3624.5 Z"/></g>
<g><path style="opacity:0.863" fill="#638a7e" d="M 4074.5,3627.5 C 4074.26,3629.4 4073.26,3630.74 4071.5,3631.5C 4071.09,3629.03 4072.09,3627.69 4074.5,3627.5 Z"/></g>
<g><path style="opacity:0.902" fill="#538373" d="M 4071.5,3631.5 C 4071.26,3633.4 4070.26,3634.74 4068.5,3635.5C 4068.09,3633.03 4069.09,3631.69 4071.5,3631.5 Z"/></g>
<g><path style="opacity:0.918" fill="#538174" d="M 4068.5,3635.5 C 4068.26,3637.4 4067.26,3638.74 4065.5,3639.5C 4065.09,3637.03 4066.09,3635.69 4068.5,3635.5 Z"/></g>
<g><path style="opacity:0.051" fill="#6fad94" d="M 4065.5,3639.5 C 4065.57,3641.03 4064.91,3642.03 4063.5,3642.5C 4063.29,3640.82 4063.95,3639.82 4065.5,3639.5 Z"/></g>
<g><path style="opacity:0.071" fill="#88baa8" d="M 4063.5,3642.5 C 4063.26,3644.4 4062.26,3645.74 4060.5,3646.5C 4060.47,3644.38 4061.47,3643.05 4063.5,3642.5 Z"/></g>
<g><path style="opacity:0.871" fill="#578b72" d="M 4060.5,3646.5 C 4060.26,3648.4 4059.26,3649.74 4057.5,3650.5C 4057.09,3648.03 4058.09,3646.69 4060.5,3646.5 Z"/></g>
<g><path style="opacity:0.882" fill="#5a7e73" d="M 4057.5,3650.5 C 4057.26,3652.4 4056.26,3653.74 4054.5,3654.5C 4054.09,3652.03 4055.09,3650.69 4057.5,3650.5 Z"/></g>
<g><path style="opacity:0.871" fill="#5a7e73" d="M 4054.5,3654.5 C 4054.26,3656.4 4053.26,3657.74 4051.5,3658.5C 4051.09,3656.03 4052.09,3654.69 4054.5,3654.5 Z"/></g>
<g><path style="opacity:0.071" fill="#89baa8" d="M 4051.5,3658.5 C 4051.26,3660.4 4050.26,3661.74 4048.5,3662.5C 4048.47,3660.38 4049.47,3659.05 4051.5,3658.5 Z"/></g>
<g><path style="opacity:0.059" fill="#87b8a9" d="M 4048.5,3662.5 C 4048.26,3664.4 4047.26,3665.74 4045.5,3666.5C 4045.47,3664.38 4046.47,3663.05 4048.5,3662.5 Z"/></g>
<g><path style="opacity:0.047" fill="#6cac9a" d="M 4044.5,3667.5 C 4044.57,3669.03 4043.91,3670.03 4042.5,3670.5C 4042.29,3668.82 4042.95,3667.82 4044.5,3667.5 Z"/></g>
<g><path style="opacity:0.894" fill="#538372" d="M 4041.5,3671.5 C 4041.26,3673.4 4040.26,3674.74 4038.5,3675.5C 4038.09,3673.03 4039.09,3671.69 4041.5,3671.5 Z"/></g>
<g><path style="opacity:0.855" fill="#64887d" d="M 4038.5,3675.5 C 4038.26,3677.4 4037.26,3678.74 4035.5,3679.5C 4035.09,3677.03 4036.09,3675.69 4038.5,3675.5 Z"/></g>
<g><path style="opacity:0.902" fill="#558274" d="M 4034.5,3680.5 C 4034.26,3682.4 4033.26,3683.74 4031.5,3684.5C 4031.09,3682.03 4032.09,3680.69 4034.5,3680.5 Z"/></g>
<g><path style="opacity:0.863" fill="#64897d" d="M 4031.5,3684.5 C 4031.26,3686.4 4030.26,3687.74 4028.5,3688.5C 4028.09,3686.03 4029.09,3684.69 4031.5,3684.5 Z"/></g>
<g><path style="opacity:0.894" fill="#548373" d="M 4027.5,3689.5 C 4027.26,3691.4 4026.26,3692.74 4024.5,3693.5C 4024.09,3691.03 4025.09,3689.69 4027.5,3689.5 Z"/></g>
<g><path style="opacity:0.902" fill="#558474" d="M 4023.5,3694.5 C 4023.26,3696.4 4022.26,3697.74 4020.5,3698.5C 4020.09,3696.03 4021.09,3694.69 4023.5,3694.5 Z"/></g>
<g><path style="opacity:0.91" fill="#538274" d="M 4019.5,3699.5 C 4019.26,3701.4 4018.26,3702.74 4016.5,3703.5C 4016.09,3701.03 4017.09,3699.69 4019.5,3699.5 Z"/></g>
<g><path style="opacity:0.039" fill="#7db0a0" d="M 4016.5,3703.5 C 4015.92,3705.75 4014.59,3707.42 4012.5,3708.5C 4012.34,3705.66 4013.68,3703.99 4016.5,3703.5 Z"/></g>
<g><path style="opacity:0.902" fill="#528173" d="M 4011.5,3709.5 C 4011.26,3711.4 4010.26,3712.74 4008.5,3713.5C 4008.09,3711.03 4009.09,3709.69 4011.5,3709.5 Z"/></g>
<g><path style="opacity:0.875" fill="#597f73" d="M 4007.5,3714.5 C 4007.26,3716.4 4006.26,3717.74 4004.5,3718.5C 4004.09,3716.03 4005.09,3714.69 4007.5,3714.5 Z"/></g>
<g><path style="opacity:0.039" fill="#7eb0a0" d="M 4003.5,3719.5 C 4002.92,3721.75 4001.59,3723.42 3999.5,3724.5C 3999.34,3721.66 4000.68,3719.99 4003.5,3719.5 Z"/></g>
<g><path style="opacity:0.878" fill="#538373" d="M 3998.5,3725.5 C 3998.26,3727.4 3997.26,3728.74 3995.5,3729.5C 3995.09,3727.03 3996.09,3725.69 3998.5,3725.5 Z"/></g>
<g><path style="opacity:0.878" fill="#538372" d="M 3993.5,3731.5 C 3993.26,3733.4 3992.26,3734.74 3990.5,3735.5C 3990.09,3733.03 3991.09,3731.69 3993.5,3731.5 Z"/></g>
<g><path style="opacity:0.875" fill="#597e72" d="M 3988.5,3737.5 C 3988.26,3739.4 3987.26,3740.74 3985.5,3741.5C 3985.09,3739.03 3986.09,3737.69 3988.5,3737.5 Z"/></g>
<g><path style="opacity:0.918" fill="#51776c" d="M 3983.5,3743.5 C 3982.92,3745.75 3981.59,3747.42 3979.5,3748.5C 3979.37,3745.63 3980.7,3743.97 3983.5,3743.5 Z"/></g>
<g><path style="opacity:0.918" fill="#51786c" d="M 3977.5,3750.5 C 3976.92,3752.75 3975.59,3754.42 3973.5,3755.5C 3973.37,3752.63 3974.7,3750.97 3977.5,3750.5 Z"/></g>
<g><path style="opacity:0.918" fill="#4e7a6c" d="M 3971.5,3757.5 C 3970.92,3759.75 3969.59,3761.42 3967.5,3762.5C 3967.37,3759.63 3968.7,3757.97 3971.5,3757.5 Z"/></g>
<g><path style="opacity:0.039" fill="#73a594" d="M 3965.5,3764.5 C 3964.92,3766.75 3963.59,3768.42 3961.5,3769.5C 3961.34,3766.66 3962.68,3764.99 3965.5,3764.5 Z"/></g>
<g><path style="opacity:0.933" fill="#5a8879" d="M 3958.5,3772.5 C 3957.58,3775.09 3955.91,3777.09 3953.5,3778.5C 3953.69,3775.31 3955.35,3773.31 3958.5,3772.5 Z"/></g>
<g><path style="opacity:0.918" fill="#5e8c7d" d="M 3951.5,3780.5 C 3950.58,3783.09 3948.91,3785.09 3946.5,3786.5C 3946.69,3783.31 3948.35,3781.31 3951.5,3780.5 Z"/></g>
<g><path style="opacity:0.918" fill="#4e7468" d="M 3942.5,3790.5 C 3941.58,3793.09 3939.91,3795.09 3937.5,3796.5C 3937.71,3793.29 3939.38,3791.29 3942.5,3790.5 Z"/></g>
<g><path style="opacity:0.886" fill="#5f8579" d="M 3933.5,3800.5 C 3932.24,3803.43 3930.24,3805.76 3927.5,3807.5C 3928.03,3803.97 3930.03,3801.63 3933.5,3800.5 Z"/></g>
<g><path style="opacity:0.898" fill="#548071" d="M 3921.5,3813.5 C 3919.91,3816.76 3917.57,3819.43 3914.5,3821.5C 3915.37,3817.63 3917.7,3814.96 3921.5,3813.5 Z"/></g>
<g><path style="opacity:0.89" fill="#5a8275" d="M 3906.5,3829.5 C 3903.9,3833.77 3900.57,3837.44 3896.5,3840.5C 3898.38,3835.61 3901.72,3831.95 3906.5,3829.5 Z"/></g>
<g><path style="opacity:0.004" fill="#cbe9da" d="M 3875.5,3861.5 C 3871.83,3867.17 3867.17,3871.83 3861.5,3875.5C 3865.83,3870.5 3870.5,3865.83 3875.5,3861.5 Z"/></g>
<g><path style="opacity:0.933" fill="#598478" d="M 3840.5,3896.5 C 3837.44,3900.57 3833.77,3903.9 3829.5,3906.5C 3831.95,3901.72 3835.61,3898.38 3840.5,3896.5 Z"/></g>
<g><path style="opacity:0.875" fill="#557d70" d="M 3820.5,3915.5 C 3818.76,3918.24 3816.43,3920.24 3813.5,3921.5C 3814.63,3918.03 3816.97,3916.03 3820.5,3915.5 Z"/></g>
<g><path style="opacity:0.855" fill="#456a62" d="M 3807.5,3927.5 C 3806.5,3929.17 3805.17,3930.5 3803.5,3931.5C 3802.83,3931.5 3802.17,3931.5 3801.5,3931.5C 3802.71,3928.96 3804.71,3927.62 3807.5,3927.5 Z"/></g>
<g><path style="opacity:0.004" fill="#bce1d9" d="M 3801.5,3931.5 C 3802.17,3931.5 3802.83,3931.5 3803.5,3931.5C 3803.03,3932.91 3802.03,3933.57 3800.5,3933.5C 3800.83,3932.83 3801.17,3932.17 3801.5,3931.5 Z"/></g>
<g><path style="opacity:0.914" fill="#4c7569" d="M 3796.5,3937.5 C 3795.83,3938.83 3794.83,3939.83 3793.5,3940.5C 3792.83,3940.5 3792.17,3940.5 3791.5,3940.5C 3792.4,3938.27 3794.07,3937.27 3796.5,3937.5 Z"/></g>
<g><path style="opacity:0.008" fill="#8ae7a0" d="M 3791.5,3940.5 C 3792.17,3940.5 3792.83,3940.5 3793.5,3940.5C 3793.03,3941.91 3792.03,3942.57 3790.5,3942.5C 3790.83,3941.83 3791.17,3941.17 3791.5,3940.5 Z"/></g>
<g><path style="opacity:0.91" fill="#658f80" d="M 3786.5,3946.5 C 3785.09,3948.91 3783.09,3950.58 3780.5,3951.5C 3781.31,3948.35 3783.31,3946.69 3786.5,3946.5 Z"/></g>
<g><path style="opacity:0.012" fill="#7b9f96" d="M 3777.5,3954.5 C 3776.42,3956.59 3774.75,3957.92 3772.5,3958.5C 3772.99,3955.68 3774.66,3954.34 3777.5,3954.5 Z"/></g>
<g><path style="opacity:0.012" fill="#79a093" d="M 3769.5,3961.5 C 3768.42,3963.59 3766.75,3964.92 3764.5,3965.5C 3764.99,3962.68 3766.66,3961.34 3769.5,3961.5 Z"/></g>
<g><path style="opacity:0.922" fill="#568276" d="M 3762.5,3967.5 C 3761.42,3969.59 3759.75,3970.92 3757.5,3971.5C 3757.97,3968.7 3759.63,3967.37 3762.5,3967.5 Z"/></g>
<g><path style="opacity:0.922" fill="#538075" d="M 3755.5,3973.5 C 3754.42,3975.59 3752.75,3976.92 3750.5,3977.5C 3750.97,3974.7 3752.63,3973.37 3755.5,3973.5 Z"/></g>
<g><path style="opacity:0.918" fill="#548275" d="M 3748.5,3979.5 C 3747.42,3981.59 3745.75,3982.92 3743.5,3983.5C 3743.97,3980.7 3745.63,3979.37 3748.5,3979.5 Z"/></g>
<g><path style="opacity:0.871" fill="#548175" d="M 3741.5,3985.5 C 3740.74,3987.26 3739.4,3988.26 3737.5,3988.5C 3737.69,3986.09 3739.03,3985.09 3741.5,3985.5 Z"/></g>
<g><path style="opacity:0.878" fill="#578276" d="M 3735.5,3990.5 C 3734.74,3992.26 3733.4,3993.26 3731.5,3993.5C 3731.69,3991.09 3733.03,3990.09 3735.5,3990.5 Z"/></g>
<g><path style="opacity:0.882" fill="#568378" d="M 3729.5,3995.5 C 3728.74,3997.26 3727.4,3998.26 3725.5,3998.5C 3725.69,3996.09 3727.03,3995.09 3729.5,3995.5 Z"/></g>
<g><path style="opacity:0.91" fill="#477064" d="M 3724.5,3999.5 C 3724.17,4000.5 3723.5,4001.17 3722.5,4001.5C 3721.83,4001.5 3721.17,4001.5 3720.5,4001.5C 3721.29,3999.9 3722.62,3999.23 3724.5,3999.5 Z"/></g>
<g><path style="opacity:0.004" fill="#bfe5d7" d="M 3720.5,4001.5 C 3721.17,4001.5 3721.83,4001.5 3722.5,4001.5C 3722.03,4002.91 3721.03,4003.57 3719.5,4003.5C 3719.83,4002.83 3720.17,4002.17 3720.5,4001.5 Z"/></g>
<g><path style="opacity:0.871" fill="#548176" d="M 3718.5,4004.5 C 3717.74,4006.26 3716.4,4007.26 3714.5,4007.5C 3714.69,4005.09 3716.03,4004.09 3718.5,4004.5 Z"/></g>
<g><path style="opacity:1" fill="#59897b" d="M 455.5,3999.5 C 456.117,3999.61 456.617,3999.94 457,4000.5C 458.053,4008.8 458.553,4017.14 458.5,4025.5C 456.697,4017.06 455.697,4008.4 455.5,3999.5 Z"/></g>
<g><path style="opacity:0.902" fill="#538475" d="M 3713.5,4008.5 C 3712.74,4010.26 3711.4,4011.26 3709.5,4011.5C 3709.69,4009.09 3711.03,4008.09 3713.5,4008.5 Z"/></g>
<g><path style="opacity:0.914" fill="#477065" d="M 3708.5,4012.5 C 3708.17,4013.5 3707.5,4014.17 3706.5,4014.5C 3705.83,4014.5 3705.17,4014.5 3704.5,4014.5C 3705.29,4012.9 3706.62,4012.23 3708.5,4012.5 Z"/></g>
<g><path style="opacity:0.004" fill="#bde6d9" d="M 3704.5,4014.5 C 3705.17,4014.5 3705.83,4014.5 3706.5,4014.5C 3706.03,4015.91 3705.03,4016.57 3703.5,4016.5C 3703.83,4015.83 3704.17,4015.17 3704.5,4014.5 Z"/></g>
<g><path style="opacity:0.91" fill="#548176" d="M 3703.5,4016.5 C 3702.74,4018.26 3701.4,4019.26 3699.5,4019.5C 3699.69,4017.09 3701.03,4016.09 3703.5,4016.5 Z"/></g>
<g><path style="opacity:0.902" fill="#538575" d="M 3698.5,4020.5 C 3697.74,4022.26 3696.4,4023.26 3694.5,4023.5C 3694.69,4021.09 3696.03,4020.09 3698.5,4020.5 Z"/></g>
<g><path style="opacity:0.89" fill="#538273" d="M 3693.5,4024.5 C 3692.74,4026.26 3691.4,4027.26 3689.5,4027.5C 3689.69,4025.09 3691.03,4024.09 3693.5,4024.5 Z"/></g>
<g><path style="opacity:0.075" fill="#74bb98" d="M 3688.5,4028.5 C 3687.74,4030.26 3686.4,4031.26 3684.5,4031.5C 3685.05,4029.47 3686.38,4028.47 3688.5,4028.5 Z"/></g>
<g><path style="opacity:0.902" fill="#558374" d="M 3684.5,4031.5 C 3683.74,4033.26 3682.4,4034.26 3680.5,4034.5C 3680.69,4032.09 3682.03,4031.09 3684.5,4031.5 Z"/></g>
<g><path style="opacity:0.063" fill="#89b9ab" d="M 3679.5,4035.5 C 3678.74,4037.26 3677.4,4038.26 3675.5,4038.5C 3676.05,4036.47 3677.38,4035.47 3679.5,4035.5 Z"/></g>
<g><path style="opacity:0.898" fill="#558474" d="M 3675.5,4038.5 C 3674.74,4040.26 3673.4,4041.26 3671.5,4041.5C 3671.69,4039.09 3673.03,4038.09 3675.5,4038.5 Z"/></g>
<g><path style="opacity:0.047" fill="#6cac9a" d="M 3670.5,4042.5 C 3670.03,4043.91 3669.03,4044.57 3667.5,4044.5C 3667.82,4042.95 3668.82,4042.29 3670.5,4042.5 Z"/></g>
<g><path style="opacity:0.063" fill="#88b9ab" d="M 3666.5,4045.5 C 3665.74,4047.26 3664.4,4048.26 3662.5,4048.5C 3663.05,4046.47 3664.38,4045.47 3666.5,4045.5 Z"/></g>
<g><path style="opacity:0.075" fill="#86bcaa" d="M 3662.5,4048.5 C 3661.74,4050.26 3660.4,4051.26 3658.5,4051.5C 3659.05,4049.47 3660.38,4048.47 3662.5,4048.5 Z"/></g>
<g><path style="opacity:0.871" fill="#568a71" d="M 3658.5,4051.5 C 3657.74,4053.26 3656.4,4054.26 3654.5,4054.5C 3654.69,4052.09 3656.03,4051.09 3658.5,4051.5 Z"/></g>
<g><path style="opacity:0.878" fill="#597f74" d="M 3654.5,4054.5 C 3653.74,4056.26 3652.4,4057.26 3650.5,4057.5C 3650.69,4055.09 3652.03,4054.09 3654.5,4054.5 Z"/></g>
<g><path style="opacity:0.871" fill="#568b72" d="M 3650.5,4057.5 C 3649.74,4059.26 3648.4,4060.26 3646.5,4060.5C 3646.69,4058.09 3648.03,4057.09 3650.5,4057.5 Z"/></g>
<g><path style="opacity:0.075" fill="#86bbaa" d="M 3646.5,4060.5 C 3645.74,4062.26 3644.4,4063.26 3642.5,4063.5C 3643.05,4061.47 3644.38,4060.47 3646.5,4060.5 Z"/></g>
<g><path style="opacity:0.055" fill="#73a797" d="M 3642.5,4063.5 C 3642.03,4064.91 3641.03,4065.57 3639.5,4065.5C 3639.82,4063.95 3640.82,4063.29 3642.5,4063.5 Z"/></g>
<g><path style="opacity:0.039" fill="#6ca896" d="M 3638.5,4066.5 C 3638.03,4067.91 3637.03,4068.57 3635.5,4068.5C 3635.82,4066.95 3636.82,4066.29 3638.5,4066.5 Z"/></g>
<g><path style="opacity:0.902" fill="#528273" d="M 3635.5,4068.5 C 3634.74,4070.26 3633.4,4071.26 3631.5,4071.5C 3631.69,4069.09 3633.03,4068.09 3635.5,4068.5 Z"/></g>
<g><path style="opacity:0.094" fill="#87bbab" d="M 3631.5,4071.5 C 3630.74,4073.26 3629.4,4074.26 3627.5,4074.5C 3628.05,4072.47 3629.38,4071.47 3631.5,4071.5 Z"/></g>
<g><path style="opacity:0.039" fill="#6ca995" d="M 3627.5,4074.5 C 3627.03,4075.91 3626.03,4076.57 3624.5,4076.5C 3624.82,4074.95 3625.82,4074.29 3627.5,4074.5 Z"/></g>
<g><path style="opacity:0.882" fill="#5a7e73" d="M 3624.5,4076.5 C 3623.74,4078.26 3622.4,4079.26 3620.5,4079.5C 3620.69,4077.09 3622.03,4076.09 3624.5,4076.5 Z"/></g>
<g><path style="opacity:0.055" fill="#73a797" d="M 3620.5,4079.5 C 3620.03,4080.91 3619.03,4081.57 3617.5,4081.5C 3617.82,4079.95 3618.82,4079.29 3620.5,4079.5 Z"/></g>
<g><path style="opacity:0.898" fill="#568277" d="M 3617.5,4081.5 C 3616.74,4083.26 3615.4,4084.26 3613.5,4084.5C 3613.69,4082.09 3615.03,4081.09 3617.5,4081.5 Z"/></g>
<g><path style="opacity:0.071" fill="#72ac97" d="M 3613.5,4084.5 C 3613.03,4085.91 3612.03,4086.57 3610.5,4086.5C 3610.82,4084.95 3611.82,4084.29 3613.5,4084.5 Z"/></g>
<g><path style="opacity:0.918" fill="#5e8e7f" d="M 469.5,4080.5 C 477.786,4107.5 487.619,4134.17 499,4160.5C 510.776,4184.4 523.276,4207.73 536.5,4230.5C 505.526,4184.54 483.193,4134.54 469.5,4080.5 Z"/></g>
<g><path style="opacity:0.886" fill="#597d72" d="M 3610.5,4086.5 C 3609.74,4088.26 3608.4,4089.26 3606.5,4089.5C 3606.69,4087.09 3608.03,4086.09 3610.5,4086.5 Z"/></g>
<g><path style="opacity:0.039" fill="#6ca895" d="M 3606.5,4089.5 C 3606.03,4090.91 3605.03,4091.57 3603.5,4091.5C 3603.82,4089.95 3604.82,4089.29 3606.5,4089.5 Z"/></g>
<g><path style="opacity:0.082" fill="#6da896" d="M 3603.5,4091.5 C 3603.03,4092.91 3602.03,4093.57 3600.5,4093.5C 3600.82,4091.95 3601.82,4091.29 3603.5,4091.5 Z"/></g>
<g><path style="opacity:0.894" fill="#527f75" d="M 3600.5,4093.5 C 3599.74,4095.26 3598.4,4096.26 3596.5,4096.5C 3596.69,4094.09 3598.03,4093.09 3600.5,4093.5 Z"/></g>
<g><path style="opacity:0.043" fill="#70ab98" d="M 3596.5,4096.5 C 3596.03,4097.91 3595.03,4098.57 3593.5,4098.5C 3593.82,4096.95 3594.82,4096.29 3596.5,4096.5 Z"/></g>
<g><path style="opacity:0.384" fill="#6fab97" d="M 3593.5,4098.5 C 3593.03,4099.91 3592.03,4100.57 3590.5,4100.5C 3590.82,4098.95 3591.82,4098.29 3593.5,4098.5 Z"/></g>
<g><path style="opacity:0.871" fill="#63887d" d="M 3590.5,4100.5 C 3589.74,4102.26 3588.4,4103.26 3586.5,4103.5C 3586.69,4101.09 3588.03,4100.09 3590.5,4100.5 Z"/></g>
<g><path style="opacity:0.016" fill="#6ca39a" d="M 3586.5,4103.5 C 3586.03,4104.91 3585.03,4105.57 3583.5,4105.5C 3583.82,4103.95 3584.82,4103.29 3586.5,4103.5 Z"/></g>
<g><path style="opacity:0.027" fill="#73af97" d="M 3583.5,4105.5 C 3583.03,4106.91 3582.03,4107.57 3580.5,4107.5C 3580.82,4105.95 3581.82,4105.29 3583.5,4105.5 Z"/></g>
<g><path style="opacity:0.316" fill="#70ab98" d="M 3580.5,4107.5 C 3580.03,4108.91 3579.03,4109.57 3577.5,4109.5C 3577.82,4107.95 3578.82,4107.29 3580.5,4107.5 Z"/></g>
<g><path style="opacity:0.063" fill="#72aa9a" d="M 3577.5,4109.5 C 3577.03,4110.91 3576.03,4111.57 3574.5,4111.5C 3574.82,4109.95 3575.82,4109.29 3577.5,4109.5 Z"/></g>
<g><path style="opacity:0.09" fill="#6dab99" d="M 3574.5,4111.5 C 3574.03,4112.91 3573.03,4113.57 3571.5,4113.5C 3571.82,4111.95 3572.82,4111.29 3574.5,4111.5 Z"/></g>
<g><path style="opacity:0.09" fill="#6dab99" d="M 3571.5,4113.5 C 3571.03,4114.91 3570.03,4115.57 3568.5,4115.5C 3568.82,4113.95 3569.82,4113.29 3571.5,4113.5 Z"/></g>
<g><path style="opacity:0.09" fill="#6dab98" d="M 3568.5,4115.5 C 3568.03,4116.91 3567.03,4117.57 3565.5,4117.5C 3565.82,4115.95 3566.82,4115.29 3568.5,4115.5 Z"/></g>
<g><path style="opacity:0.09" fill="#6dab98" d="M 3565.5,4117.5 C 3565.03,4118.91 3564.03,4119.57 3562.5,4119.5C 3562.82,4117.95 3563.82,4117.29 3565.5,4117.5 Z"/></g>
<g><path style="opacity:0.09" fill="#6dab99" d="M 3562.5,4119.5 C 3562.03,4120.91 3561.03,4121.57 3559.5,4121.5C 3559.82,4119.95 3560.82,4119.29 3562.5,4119.5 Z"/></g>
<g><path style="opacity:0.09" fill="#6dab99" d="M 3559.5,4121.5 C 3559.03,4122.91 3558.03,4123.57 3556.5,4123.5C 3556.82,4121.95 3557.82,4121.29 3559.5,4121.5 Z"/></g>
<g><path style="opacity:0.09" fill="#6dab99" d="M 3556.5,4123.5 C 3556.03,4124.91 3555.03,4125.57 3553.5,4125.5C 3553.82,4123.95 3554.82,4123.29 3556.5,4123.5 Z"/></g>
<g><path style="opacity:0.09" fill="#6eab99" d="M 3553.5,4125.5 C 3553.03,4126.91 3552.03,4127.57 3550.5,4127.5C 3550.82,4125.95 3551.82,4125.29 3553.5,4125.5 Z"/></g>
<g><path style="opacity:0.063" fill="#72aa9a" d="M 3550.5,4127.5 C 3550.03,4128.91 3549.03,4129.57 3547.5,4129.5C 3547.82,4127.95 3548.82,4127.29 3550.5,4127.5 Z"/></g>
<g><path style="opacity:0.043" fill="#70ab98" d="M 3547.5,4129.5 C 3547.03,4130.91 3546.03,4131.57 3544.5,4131.5C 3544.82,4129.95 3545.82,4129.29 3547.5,4129.5 Z"/></g>
<g><path style="opacity:0.024" fill="#6cad92" d="M 3544.5,4131.5 C 3544.03,4132.91 3543.03,4133.57 3541.5,4133.5C 3541.82,4131.95 3542.82,4131.29 3544.5,4131.5 Z"/></g>
<g><path style="opacity:0.882" fill="#628a80" d="M 3541.5,4133.5 C 3539.85,4135.33 3537.85,4136.66 3535.5,4137.5C 3536.39,4134.71 3538.39,4133.37 3541.5,4133.5 Z"/></g>
<g><path style="opacity:0.078" fill="#70a99a" d="M 3533.5,4138.5 C 3533.03,4139.91 3532.03,4140.57 3530.5,4140.5C 3530.82,4138.95 3531.82,4138.29 3533.5,4138.5 Z"/></g>
<g><path style="opacity:0.035" fill="#72a89e" d="M 3530.5,4140.5 C 3530.03,4141.91 3529.03,4142.57 3527.5,4142.5C 3527.82,4140.95 3528.82,4140.29 3530.5,4140.5 Z"/></g>
<g><path style="opacity:0.898" fill="#5d9379" d="M 3527.5,4142.5 C 3526.34,4144.25 3524.67,4145.25 3522.5,4145.5C 3523.3,4143.26 3524.97,4142.26 3527.5,4142.5 Z"/></g>
<g><path style="opacity:0.059" fill="#6fa898" d="M 3522.5,4145.5 C 3522.03,4146.91 3521.03,4147.57 3519.5,4147.5C 3519.82,4145.95 3520.82,4145.29 3522.5,4145.5 Z"/></g>
<g><path style="opacity:0.882" fill="#638c7e" d="M 3519.5,4147.5 C 3517.85,4149.33 3515.85,4150.66 3513.5,4151.5C 3514.39,4148.71 3516.39,4147.37 3519.5,4147.5 Z"/></g>
<g><path style="opacity:0.935" fill="#568779" d="M 3511.5,4152.5 C 3509.18,4154.66 3506.51,4156.33 3503.5,4157.5C 3505.12,4154.35 3507.79,4152.68 3511.5,4152.5 Z"/></g>
<g><path style="opacity:0.012" fill="#73958a" d="M 3503.5,4157.5 C 3502.34,4159.25 3500.67,4160.25 3498.5,4160.5C 3499.3,4158.26 3500.97,4157.26 3503.5,4157.5 Z"/></g>
<g><path style="opacity:0.875" fill="#58857a" d="M 3498.5,4160.5 C 3496.18,4162.66 3493.51,4164.33 3490.5,4165.5C 3492.12,4162.35 3494.79,4160.68 3498.5,4160.5 Z"/></g>
<g><path style="opacity:0.035" fill="#6a9f93" d="M 3468.5,4178.5 C 3467.34,4180.25 3465.67,4181.25 3463.5,4181.5C 3464.3,4179.26 3465.97,4178.26 3468.5,4178.5 Z"/></g>
<g><path style="opacity:0.012" fill="#73978c" d="M 3463.5,4181.5 C 3462.34,4183.25 3460.67,4184.25 3458.5,4184.5C 3459.3,4182.26 3460.97,4181.26 3463.5,4181.5 Z"/></g>
<g><path style="opacity:0.035" fill="#6a9f93" d="M 3456.5,4185.5 C 3455.34,4187.25 3453.67,4188.25 3451.5,4188.5C 3452.3,4186.26 3453.97,4185.26 3456.5,4185.5 Z"/></g>
<g><path style="opacity:0.91" fill="#5d957c" d="M 3451.5,4188.5 C 3450.34,4190.25 3448.67,4191.25 3446.5,4191.5C 3447.3,4189.26 3448.97,4188.26 3451.5,4188.5 Z"/></g>
<g><path style="opacity:0.941" fill="#588978" d="M 3437.5,4196.5 C 3436.1,4197.89 3434.43,4198.89 3432.5,4199.5C 3433.3,4197.26 3434.97,4196.26 3437.5,4196.5 Z"/></g>
<g><path style="opacity:0.012" fill="#73998d" d="M 3428.5,4201.5 C 3427.34,4203.25 3425.67,4204.25 3423.5,4204.5C 3424.3,4202.26 3425.97,4201.26 3428.5,4201.5 Z"/></g>
<g><path style="opacity:0.941" fill="#58877b" d="M 3410.5,4211.5 C 3409.1,4212.89 3407.43,4213.89 3405.5,4214.5C 3406.3,4212.26 3407.97,4211.26 3410.5,4211.5 Z"/></g>
<g><path style="opacity:0.945" fill="#698e83" d="M 3378.5,4228.5 C 3377.1,4229.89 3375.43,4230.89 3373.5,4231.5C 3374.3,4229.26 3375.97,4228.26 3378.5,4228.5 Z"/></g>
<g><path style="opacity:0.976" fill="#5a897a" d="M 536.5,4230.5 C 537.496,4230.41 538.329,4230.75 539,4231.5C 549.896,4247.73 561.563,4263.4 574,4278.5C 586.306,4291.14 598.139,4304.14 609.5,4317.5C 581.124,4291.66 556.791,4262.66 536.5,4230.5 Z"/></g>
<g><path style="opacity:0.929" fill="#639e7f" d="M 3269.5,4281.5 C 3268.49,4282.67 3267.15,4283.34 3265.5,4283.5C 3266.18,4281.82 3267.52,4281.16 3269.5,4281.5 Z"/></g>
<g><path style="opacity:0.925" fill="#587e73" d="M 609.5,4317.5 C 613.374,4318.37 616.041,4320.7 617.5,4324.5C 614.236,4322.91 611.569,4320.57 609.5,4317.5 Z"/></g>
<g><path style="opacity:1" fill="#609483" d="M 617.5,4324.5 C 619.833,4324.83 621.167,4326.17 621.5,4328.5C 619.833,4327.5 618.5,4326.17 617.5,4324.5 Z"/></g>
<g><path style="opacity:0.549" fill="#a4ddc9" d="M 623.5,4330.5 C 625.027,4330.43 626.027,4331.09 626.5,4332.5C 624.973,4332.57 623.973,4331.91 623.5,4330.5 Z"/></g>
<g><path style="opacity:0.906" fill="#5c887b" d="M 626.5,4332.5 C 629.855,4333.34 632.188,4335.34 633.5,4338.5C 630.573,4337.24 628.239,4335.24 626.5,4332.5 Z"/></g>
<g><path style="opacity:1" fill="#497568" d="M 633.5,4338.5 C 636.204,4338.67 637.871,4340 638.5,4342.5C 636.251,4341.92 634.585,4340.59 633.5,4338.5 Z"/></g>
<g><path style="opacity:1" fill="#3e6359" d="M 638.5,4342.5 C 640.674,4342.75 642.341,4343.75 643.5,4345.5C 642.833,4345.5 642.167,4345.5 641.5,4345.5C 640.167,4344.83 639.167,4343.83 638.5,4342.5 Z"/></g>
<g><path style="opacity:0.455" fill="#a4dbca" d="M 641.5,4345.5 C 642.167,4345.5 642.833,4345.5 643.5,4345.5C 643.833,4346.17 644.167,4346.83 644.5,4347.5C 642.973,4347.57 641.973,4346.91 641.5,4345.5 Z"/></g>
<g><path style="opacity:0.886" fill="#4d766b" d="M 644.5,4347.5 C 646.973,4347.09 648.306,4348.09 648.5,4350.5C 646.596,4350.26 645.262,4349.26 644.5,4347.5 Z"/></g>
<g><path style="opacity:1" fill="#4e7d6f" d="M 648.5,4350.5 C 650.632,4350.55 651.965,4351.55 652.5,4353.5C 650.596,4353.26 649.262,4352.26 648.5,4350.5 Z"/></g>
<g><path style="opacity:1" fill="#4e7b6e" d="M 652.5,4353.5 C 654.632,4353.55 655.965,4354.55 656.5,4356.5C 654.596,4356.26 653.262,4355.26 652.5,4353.5 Z"/></g>
<g><path style="opacity:0.918" fill="#4c766b" d="M 656.5,4356.5 C 658.973,4356.09 660.306,4357.09 660.5,4359.5C 658.596,4359.26 657.262,4358.26 656.5,4356.5 Z"/></g>
<g><path style="opacity:0.878" fill="#4d7968" d="M 660.5,4359.5 C 662.783,4359.61 664.783,4360.44 666.5,4362C 667.252,4362.67 667.586,4363.5 667.5,4364.5C 664.63,4363.57 662.296,4361.9 660.5,4359.5 Z"/></g>
<g><path style="opacity:0.671" fill="#79b5a3" d="M 667.5,4364.5 C 669.027,4364.43 670.027,4365.09 670.5,4366.5C 668.973,4366.57 667.973,4365.91 667.5,4364.5 Z"/></g>
<g><path style="opacity:0.718" fill="#8fc3b2" d="M 670.5,4366.5 C 672.404,4366.74 673.738,4367.74 674.5,4369.5C 672.596,4369.26 671.262,4368.26 670.5,4366.5 Z"/></g>
<g><path style="opacity:0.91" fill="#5e8a7c" d="M 3033.5,4369.5 C 3031.4,4370.61 3029.07,4371.28 3026.5,4371.5C 3028.28,4369.66 3030.61,4368.99 3033.5,4369.5 Z"/></g>
<g><path style="opacity:0.388" fill="#a5dbc8" d="M 674.5,4369.5 C 676.027,4369.43 677.027,4370.09 677.5,4371.5C 675.973,4371.57 674.973,4370.91 674.5,4369.5 Z"/></g>
<g><path style="opacity:0.682" fill="#76b6a2" d="M 679.5,4372.5 C 681.027,4372.43 682.027,4373.09 682.5,4374.5C 680.973,4374.57 679.973,4373.91 679.5,4372.5 Z"/></g>
<g><path style="opacity:0.914" fill="#5b8779" d="M 3016.5,4374.5 C 3014.4,4375.61 3012.07,4376.28 3009.5,4376.5C 3011.28,4374.66 3013.61,4373.99 3016.5,4374.5 Z"/></g>
<g><path style="opacity:0.631" fill="#79b5a3" d="M 682.5,4374.5 C 684.027,4374.43 685.027,4375.09 685.5,4376.5C 683.973,4376.57 682.973,4375.91 682.5,4374.5 Z"/></g>
<g><path style="opacity:0.933" fill="#588979" d="M 3009.5,4376.5 C 3007.4,4377.61 3005.07,4378.28 3002.5,4378.5C 3004.28,4376.66 3006.61,4375.99 3009.5,4376.5 Z"/></g>
<g><path style="opacity:0.941" fill="#5c8a7c" d="M 685.5,4376.5 C 689.209,4376.68 691.876,4378.35 693.5,4381.5C 690.296,4380.62 687.629,4378.95 685.5,4376.5 Z"/></g>
<g><path style="opacity:0.967" fill="#58897a" d="M 3002.5,4378.5 C 3000.4,4379.61 2998.07,4380.28 2995.5,4380.5C 2997.28,4378.66 2999.61,4377.99 3002.5,4378.5 Z"/></g>
<g><path style="opacity:0.953" fill="#578879" d="M 2991.5,4381.5 C 2989.4,4382.61 2987.07,4383.28 2984.5,4383.5C 2986.28,4381.66 2988.61,4380.99 2991.5,4381.5 Z"/></g>
<g><path style="opacity:0.451" fill="#74aa9d" d="M 693.5,4381.5 C 695.179,4381.29 696.179,4381.95 696.5,4383.5C 694.973,4383.57 693.973,4382.91 693.5,4381.5 Z"/></g>
<g><path style="opacity:0.925" fill="#598b79" d="M 2984.5,4383.5 C 2981.09,4385.07 2977.43,4386.07 2973.5,4386.5C 2973.62,4385.41 2974.29,4384.75 2975.5,4384.5C 2978.45,4383.7 2981.45,4383.36 2984.5,4383.5 Z"/></g>
<g><path style="opacity:0.945" fill="#568275" d="M 696.5,4383.5 C 702.785,4384.97 708.118,4387.97 712.5,4392.5C 706.65,4390.29 701.316,4387.29 696.5,4383.5 Z"/></g>
<g><path style="opacity:0.925" fill="#578477" d="M 2969.5,4387.5 C 2964.72,4389.28 2959.72,4390.61 2954.5,4391.5C 2954.62,4390.41 2955.29,4389.75 2956.5,4389.5C 2960.72,4388.09 2965.06,4387.42 2969.5,4387.5 Z"/></g>
<g><path style="opacity:0.349" fill="#89b5a7" d="M 712.5,4392.5 C 714.179,4392.29 715.179,4392.95 715.5,4394.5C 713.973,4394.57 712.973,4393.91 712.5,4392.5 Z"/></g>
<g><path style="opacity:1" fill="#588c7c" d="M 715.5,4394.5 C 719.085,4394.29 721.751,4395.63 723.5,4398.5C 720.515,4397.67 717.849,4396.34 715.5,4394.5 Z"/></g>
<g><path style="opacity:1" fill="#548476" d="M 723.5,4398.5 C 725.483,4398.16 726.817,4398.82 727.5,4400.5C 725.847,4400.34 724.514,4399.67 723.5,4398.5 Z"/></g>
<g><path style="opacity:1" fill="#548476" d="M 727.5,4400.5 C 730.393,4400.03 732.393,4401.03 733.5,4403.5C 731.181,4403.01 729.181,4402.01 727.5,4400.5 Z"/></g>
<g><path style="opacity:1" fill="#5b8d7d" d="M 733.5,4403.5 C 734.873,4403.34 736.207,4403.51 737.5,4404C 744.442,4407.24 751.108,4410.74 757.5,4414.5C 748.964,4411.9 740.964,4408.23 733.5,4403.5 Z"/></g>
<g><path style="opacity:1" fill="#5e8e80" d="M 757.5,4414.5 C 764.805,4415.82 771.472,4418.49 777.5,4422.5C 770.371,4420.79 763.704,4418.13 757.5,4414.5 Z"/></g>
<g><path style="opacity:1" fill="#629585" d="M 777.5,4422.5 C 781.708,4422.68 785.374,4424.01 788.5,4426.5C 784.463,4425.93 780.797,4424.6 777.5,4422.5 Z"/></g>
<g><path style="opacity:1" fill="#5f9081" d="M 788.5,4426.5 C 801.833,4429.72 814.833,4433.72 827.5,4438.5C 814.037,4435.68 801.037,4431.68 788.5,4426.5 Z"/></g>
</svg>
