<?xml version="1.0" encoding="UTF-8"?>
<!DOCTYPE svg PUBLIC "-//W3C//DTD SVG 1.1//EN" "http://www.w3.org/Graphics/SVG/1.1/DTD/svg11.dtd">
<svg xmlns="http://www.w3.org/2000/svg" version="1.1" width="4811px" height="4899px" style="shape-rendering:geometricPrecision; text-rendering:geometricPrecision; image-rendering:optimizeQuality; fill-rule:evenodd; clip-rule:evenodd" xmlns:xlink="http://www.w3.org/1999/xlink">
<g><path style="opacity:0.584" fill="#89d3bc" d="M 2392.5,453.5 C 2786.31,443.864 3151.98,539.697 3489.5,741C 3848.55,961.896 4114.39,1264.73 4287,1649.5C 4423.28,1964.19 4476.61,2292.53 4447,2634.5C 4410.54,3016.52 4277.54,3359.85 4048,3664.5C 3821.87,3959.19 3536.37,4176.02 3191.5,4315C 2974.64,4400.46 2749.64,4446.8 2516.5,4454C 1985.17,4454.67 1453.83,4454.67 922.5,4454C 765.164,4440.77 639.664,4371.27 546,4245.5C 491.15,4167.63 460.483,4080.96 454,3985.5C 453.333,3454.17 453.333,2922.83 454,2391.5C 469.987,1967.14 604.32,1585.81 857,1247.5C 1053.59,989.851 1297.42,790.351 1588.5,649C 1842.88,527.905 2110.88,462.739 2392.5,453.5 Z M 2702.5,1484.5 C 2704.51,1485.92 2706.85,1486.59 2709.5,1486.5C 2711.91,1487.77 2714.57,1488.43 2717.5,1488.5C 2719.51,1489.92 2721.85,1490.59 2724.5,1490.5C 2817.7,1517.27 2905.37,1556.27 2987.5,1607.5C 2987.97,1608.91 2988.97,1609.57 2990.5,1609.5C 3022.86,1630.69 3054.19,1653.35 3084.5,1677.5C 3084.97,1678.91 3085.97,1679.57 3087.5,1679.5C 3247.24,1812.51 3356.74,1979.18 3416,2179.5C 3440.87,2267.43 3453.53,2357.1 3454,2448.5C 3454.67,2717.83 3454.67,2987.17 3454,3256.5C 3452.99,3304.06 3437.49,3346.06 3407.5,3382.5C 3406.09,3382.97 3405.43,3383.97 3405.5,3385.5C 3402.5,3387.83 3399.83,3390.5 3397.5,3393.5C 3393.83,3396.5 3390.5,3399.83 3387.5,3403.5C 3350.05,3435.87 3306.38,3452.7 3256.5,3454C 2987.17,3454.67 2717.83,3454.67 2448.5,3454C 2190.17,3449.49 1965.84,3361.16 1775.5,3189C 1741.49,3156.83 1709.49,3123 1679.5,3087.5C 1679.57,3085.97 1678.91,3084.97 1677.5,3084.5C 1653.35,3054.19 1630.69,3022.86 1609.5,2990.5C 1609.57,2988.97 1608.91,2987.97 1607.5,2987.5C 1556.27,2905.37 1517.27,2817.7 1490.5,2724.5C 1490.59,2721.85 1489.92,2719.51 1488.5,2717.5C 1431.26,2497.23 1445.09,2281.56 1530,2070.5C 1617.95,1863.89 1758.45,1703.39 1951.5,1589C 2144.77,1478.86 2352.1,1436.19 2573.5,1461C 2616.95,1466.46 2659.95,1474.29 2702.5,1484.5 Z"/></g>
<g><path style="opacity:1" fill="#65fbf0" d="M 2394.5,454.5 C 2769.15,445.912 3119.48,533.412 3445.5,717C 3799.01,922.504 4067.18,1208 4250,1573.5C 4407.59,1898.64 4473.59,2241.64 4448,2602.5C 4415.74,3004.79 4277.07,3364.79 4032,3682.5C 3786.91,3993.48 3477.07,4214.65 3102.5,4346C 2918.36,4408.7 2729.03,4444.03 2534.5,4452C 1997.5,4453.65 1460.5,4453.98 923.5,4453C 779.393,4441.53 660.893,4381.03 568,4271.5C 499.251,4186.6 461.585,4089.26 455,3979.5C 454.333,3451.5 454.333,2923.5 455,2395.5C 471.866,1945.76 619.866,1546.09 899,1196.5C 1146.76,893.458 1456.59,679.292 1828.5,554C 2012.5,493.945 2201.17,460.778 2394.5,454.5 Z M 2702.5,1484.5 C 2704.51,1485.92 2706.85,1486.59 2709.5,1486.5C 2711.91,1487.77 2714.57,1488.43 2717.5,1488.5C 2719.51,1489.92 2721.85,1490.59 2724.5,1490.5C 2817.7,1517.27 2905.37,1556.27 2987.5,1607.5C 2987.97,1608.91 2988.97,1609.57 2990.5,1609.5C 3022.86,1630.69 3054.19,1653.35 3084.5,1677.5C 3084.97,1678.91 3085.97,1679.57 3087.5,1679.5C 3247.24,1812.51 3356.74,1979.18 3416,2179.5C 3440.87,2267.43 3453.53,2357.1 3454,2448.5C 3454.67,2717.83 3454.67,2987.17 3454,3256.5C 3452.99,3304.06 3437.49,3346.06 3407.5,3382.5C 3406.09,3382.97 3405.43,3383.97 3405.5,3385.5C 3402.5,3387.83 3399.83,3390.5 3397.5,3393.5C 3393.83,3396.5 3390.5,3399.83 3387.5,3403.5C 3350.05,3435.87 3306.38,3452.7 3256.5,3454C 2987.17,3454.67 2717.83,3454.67 2448.5,3454C 2190.17,3449.49 1965.84,3361.16 1775.5,3189C 1741.49,3156.83 1709.49,3123 1679.5,3087.5C 1679.57,3085.97 1678.91,3084.97 1677.5,3084.5C 1653.35,3054.19 1630.69,3022.86 1609.5,2990.5C 1609.57,2988.97 1608.91,2987.97 1607.5,2987.5C 1556.27,2905.37 1517.27,2817.7 1490.5,2724.5C 1490.59,2721.85 1489.92,2719.51 1488.5,2717.5C 1431.26,2497.23 1445.09,2281.56 1530,2070.5C 1617.95,1863.89 1758.45,1703.39 1951.5,1589C 2144.77,1478.86 2352.1,1436.19 2573.5,1461C 2616.95,1466.46 2659.95,1474.29 2702.5,1484.5 Z"/></g>
<g><path style="opacity:0.765" fill="#3e9690" d="M 2702.5,1484.5 C 2705.15,1484.41 2707.49,1485.08 2709.5,1486.5C 2706.85,1486.59 2704.51,1485.92 2702.5,1484.5 Z"/></g>
<g><path style="opacity:0.937" fill="#419f98" d="M 2717.5,1488.5 C 2720.15,1488.41 2722.49,1489.08 2724.5,1490.5C 2721.85,1490.59 2719.51,1489.92 2717.5,1488.5 Z"/></g>
<g><path style="opacity:0.514" fill="#337671" d="M 2987.5,1607.5 C 2989.03,1607.43 2990.03,1608.09 2990.5,1609.5C 2988.97,1609.57 2987.97,1608.91 2987.5,1607.5 Z"/></g>
<g><path style="opacity:0.78" fill="#347873" d="M 3084.5,1677.5 C 3086.03,1677.43 3087.03,1678.09 3087.5,1679.5C 3085.97,1679.57 3084.97,1678.91 3084.5,1677.5 Z"/></g>
<g><path style="opacity:0.937" fill="#419e97" d="M 1488.5,2717.5 C 1489.92,2719.51 1490.59,2721.85 1490.5,2724.5C 1489.08,2722.49 1488.41,2720.15 1488.5,2717.5 Z"/></g>
<g><path style="opacity:0.514" fill="#337671" d="M 1607.5,2987.5 C 1608.91,2987.97 1609.57,2988.97 1609.5,2990.5C 1608.09,2990.03 1607.43,2989.03 1607.5,2987.5 Z"/></g>
<g><path style="opacity:0.78" fill="#347872" d="M 1677.5,3084.5 C 1678.91,3084.97 1679.57,3085.97 1679.5,3087.5C 1678.09,3087.03 1677.43,3086.03 1677.5,3084.5 Z"/></g>
<g><path style="opacity:0.78" fill="#337772" d="M 3407.5,3382.5 C 3407.57,3384.03 3406.91,3385.03 3405.5,3385.5C 3405.43,3383.97 3406.09,3382.97 3407.5,3382.5 Z"/></g>
<g><path style="opacity:0.929" fill="#44a8a1" d="M 3397.5,3393.5 C 3395.17,3397.83 3391.83,3401.17 3387.5,3403.5C 3390.5,3399.83 3393.83,3396.5 3397.5,3393.5 Z"/></g>
</svg>
